<mxfile host="app.diagrams.net" modified="2024-03-28T15:08:13.102Z" agent="Mozilla/5.0 (Macintosh; Intel Mac OS X 10_15_7) AppleWebKit/537.36 (KHTML, like Gecko) Chrome/123.0.0.0 Safari/537.36 Edg/123.0.0.0" etag="dbw7aDFs1C4HEwIwIBS4" version="24.1.0" type="github" pages="7">
  <diagram name="第 1 页" id="OoXjvzzAkHHXIpEGZxyq">
    <mxGraphModel dx="2066" dy="1160" grid="1" gridSize="10" guides="1" tooltips="1" connect="1" arrows="1" fold="1" page="1" pageScale="1" pageWidth="827" pageHeight="1169" math="0" shadow="0">
      <root>
        <mxCell id="0" />
        <mxCell id="1" parent="0" />
        <mxCell id="fn3CrWCip7WzobfVm11u-1" value="" style="rounded=0;whiteSpace=wrap;html=1;fillColor=#dae8fc;strokeColor=#6c8ebf;" parent="1" vertex="1">
          <mxGeometry x="160" y="880" width="1110" height="80" as="geometry" />
        </mxCell>
        <mxCell id="cdBDi0reQEbNQOHo2eeN-31" value="" style="rounded=0;whiteSpace=wrap;html=1;fillColor=#dae8fc;strokeColor=#6c8ebf;" parent="1" vertex="1">
          <mxGeometry x="160" y="440" width="450" height="422.5" as="geometry" />
        </mxCell>
        <mxCell id="cdBDi0reQEbNQOHo2eeN-1" value="tz-design" style="rounded=0;whiteSpace=wrap;html=1;fillColor=#dae8fc;strokeColor=#6c8ebf;" parent="1" vertex="1">
          <mxGeometry x="160" y="980" width="450" height="60" as="geometry" />
        </mxCell>
        <mxCell id="cdBDi0reQEbNQOHo2eeN-30" value="" style="rounded=0;whiteSpace=wrap;html=1;fillColor=#b1ddf0;strokeColor=#10739e;" parent="1" vertex="1">
          <mxGeometry x="170" y="742.5" width="430" height="110" as="geometry" />
        </mxCell>
        <mxCell id="cdBDi0reQEbNQOHo2eeN-9" value="资源中心" style="rounded=0;whiteSpace=wrap;html=1;fillColor=#dae8fc;strokeColor=#6c8ebf;" parent="1" vertex="1">
          <mxGeometry x="160" y="1060" width="1110" height="60" as="geometry" />
        </mxCell>
        <mxCell id="cdBDi0reQEbNQOHo2eeN-10" value="lcp-workspace（配置端）" style="text;html=1;align=left;verticalAlign=middle;whiteSpace=wrap;rounded=0;" parent="1" vertex="1">
          <mxGeometry x="170" y="442.5" width="160" height="30" as="geometry" />
        </mxCell>
        <mxCell id="cdBDi0reQEbNQOHo2eeN-15" value="cir-form-make&lt;br&gt;(表单设计器)" style="rounded=0;whiteSpace=wrap;html=1;" parent="1" vertex="1">
          <mxGeometry x="320" y="802.5" width="130" height="40" as="geometry" />
        </mxCell>
        <mxCell id="cdBDi0reQEbNQOHo2eeN-16" value="cir-data-model&lt;br&gt;(数据模型)" style="rounded=0;whiteSpace=wrap;html=1;" parent="1" vertex="1">
          <mxGeometry x="180" y="802.5" width="130" height="40" as="geometry" />
        </mxCell>
        <mxCell id="cdBDi0reQEbNQOHo2eeN-17" value="cir-event-center&lt;br&gt;(程序触发器&lt;span style=&quot;background-color: initial;&quot;&gt;)&lt;/span&gt;" style="rounded=0;whiteSpace=wrap;html=1;" parent="1" vertex="1">
          <mxGeometry x="460" y="802.5" width="130" height="40" as="geometry" />
        </mxCell>
        <mxCell id="cdBDi0reQEbNQOHo2eeN-18" value="cir-state-flow-manager&lt;br&gt;(流程设计器&lt;span style=&quot;background-color: initial;&quot;&gt;)&lt;/span&gt;" style="rounded=0;whiteSpace=wrap;html=1;" parent="1" vertex="1">
          <mxGeometry x="320" y="752.5" width="130" height="40" as="geometry" />
        </mxCell>
        <mxCell id="cdBDi0reQEbNQOHo2eeN-19" value="cir-formtransfer&lt;br&gt;(表单转换，属性联动等)" style="rounded=0;whiteSpace=wrap;html=1;" parent="1" vertex="1">
          <mxGeometry x="180" y="752.5" width="130" height="40" as="geometry" />
        </mxCell>
        <mxCell id="cdBDi0reQEbNQOHo2eeN-20" value="" style="rounded=0;whiteSpace=wrap;html=1;fillColor=#b1ddf0;strokeColor=#10739e;" parent="1" vertex="1">
          <mxGeometry x="170" y="490" width="430" height="213.75" as="geometry" />
        </mxCell>
        <mxCell id="cdBDi0reQEbNQOHo2eeN-92" value="" style="rounded=0;whiteSpace=wrap;html=1;fillColor=#b0e3e6;strokeColor=#0e8088;" parent="1" vertex="1">
          <mxGeometry x="320" y="530" width="270" height="113.75" as="geometry" />
        </mxCell>
        <mxCell id="cdBDi0reQEbNQOHo2eeN-21" value="object-class-manage(对象、变更设计器)" style="text;html=1;align=left;verticalAlign=middle;whiteSpace=wrap;rounded=0;" parent="1" vertex="1">
          <mxGeometry x="180" y="490" width="255" height="30" as="geometry" />
        </mxCell>
        <mxCell id="cdBDi0reQEbNQOHo2eeN-22" value="" style="rounded=0;whiteSpace=wrap;html=1;fillColor=#dae8fc;strokeColor=#6c8ebf;" parent="1" vertex="1">
          <mxGeometry x="160" y="340" width="1110" height="80" as="geometry" />
        </mxCell>
        <mxCell id="cdBDi0reQEbNQOHo2eeN-24" value="对象管理" style="rounded=0;whiteSpace=wrap;html=1;fillColor=#f8cecc;strokeColor=#b85450;" parent="1" vertex="1">
          <mxGeometry x="180" y="530" width="130" height="163.75" as="geometry" />
        </mxCell>
        <mxCell id="cdBDi0reQEbNQOHo2eeN-25" value="页签管理" style="rounded=0;whiteSpace=wrap;html=1;fillColor=#f8cecc;strokeColor=#b85450;" parent="1" vertex="1">
          <mxGeometry x="320" y="653.75" width="270" height="40" as="geometry" />
        </mxCell>
        <mxCell id="cdBDi0reQEbNQOHo2eeN-26" value="属性管理" style="rounded=0;whiteSpace=wrap;html=1;fillColor=#f8cecc;strokeColor=#b85450;" parent="1" vertex="1">
          <mxGeometry x="330" y="540" width="120" height="40" as="geometry" />
        </mxCell>
        <mxCell id="cdBDi0reQEbNQOHo2eeN-27" value="首选项配置" style="rounded=0;whiteSpace=wrap;html=1;fillColor=#f8cecc;strokeColor=#b85450;" parent="1" vertex="1">
          <mxGeometry x="460" y="540" width="120" height="40" as="geometry" />
        </mxCell>
        <mxCell id="cdBDi0reQEbNQOHo2eeN-28" value="属性联动" style="rounded=0;whiteSpace=wrap;html=1;fillColor=#f8cecc;strokeColor=#b85450;" parent="1" vertex="1">
          <mxGeometry x="330" y="591.25" width="120" height="40" as="geometry" />
        </mxCell>
        <mxCell id="cdBDi0reQEbNQOHo2eeN-29" value="插件管理" style="rounded=0;whiteSpace=wrap;html=1;fillColor=#f8cecc;strokeColor=#b85450;" parent="1" vertex="1">
          <mxGeometry x="460" y="593.75" width="120" height="40" as="geometry" />
        </mxCell>
        <mxCell id="cdBDi0reQEbNQOHo2eeN-76" value="" style="rounded=0;whiteSpace=wrap;html=1;fillColor=#dae8fc;strokeColor=#6c8ebf;" parent="1" vertex="1">
          <mxGeometry x="680" y="440" width="590" height="422.5" as="geometry" />
        </mxCell>
        <mxCell id="cdBDi0reQEbNQOHo2eeN-33" value="lcp-portal（用户端）" style="text;html=1;align=left;verticalAlign=middle;whiteSpace=wrap;rounded=0;" parent="1" vertex="1">
          <mxGeometry x="690" y="442.5" width="140" height="30" as="geometry" />
        </mxCell>
        <mxCell id="cdBDi0reQEbNQOHo2eeN-34" value="" style="rounded=0;whiteSpace=wrap;html=1;fillColor=#b1ddf0;strokeColor=#10739e;" parent="1" vertex="1">
          <mxGeometry x="170" y="890" width="750" height="60" as="geometry" />
        </mxCell>
        <mxCell id="cdBDi0reQEbNQOHo2eeN-35" value="自定义组件库" style="text;html=1;align=left;verticalAlign=middle;whiteSpace=wrap;rounded=0;" parent="1" vertex="1">
          <mxGeometry x="190" y="905" width="80" height="30" as="geometry" />
        </mxCell>
        <mxCell id="cdBDi0reQEbNQOHo2eeN-40" value="&lt;div&gt;lcp-layout-components&lt;/div&gt;&lt;div&gt;(列表布局自定义组件库)&lt;/div&gt;" style="rounded=0;whiteSpace=wrap;html=1;" parent="1" vertex="1">
          <mxGeometry x="290" y="900" width="200" height="40" as="geometry" />
        </mxCell>
        <mxCell id="cdBDi0reQEbNQOHo2eeN-41" value="&lt;div&gt;lcp-page-components&lt;/div&gt;&lt;div&gt;(列表、工作台自定义组件库)&lt;/div&gt;" style="rounded=0;whiteSpace=wrap;html=1;" parent="1" vertex="1">
          <mxGeometry x="500" y="900" width="200" height="40" as="geometry" />
        </mxCell>
        <mxCell id="cdBDi0reQEbNQOHo2eeN-42" value="&lt;div&gt;cir-form-components&lt;/div&gt;&lt;div&gt;(表单自定义组件库)&lt;/div&gt;" style="rounded=0;whiteSpace=wrap;html=1;" parent="1" vertex="1">
          <mxGeometry x="710" y="900" width="200" height="40" as="geometry" />
        </mxCell>
        <mxCell id="cdBDi0reQEbNQOHo2eeN-44" value="tz-render" style="rounded=0;whiteSpace=wrap;html=1;fillColor=#dae8fc;strokeColor=#6c8ebf;" parent="1" vertex="1">
          <mxGeometry x="680" y="980" width="590" height="60" as="geometry" />
        </mxCell>
        <mxCell id="cdBDi0reQEbNQOHo2eeN-56" value="" style="rounded=0;whiteSpace=wrap;html=1;fillColor=#b1ddf0;strokeColor=#10739e;" parent="1" vertex="1">
          <mxGeometry x="691" y="742.5" width="569" height="110" as="geometry" />
        </mxCell>
        <mxCell id="cdBDi0reQEbNQOHo2eeN-52" value="&lt;div&gt;cir-csb-common-view&lt;/div&gt;&lt;div&gt;(天舟云渲染器...)&lt;/div&gt;" style="rounded=0;whiteSpace=wrap;html=1;" parent="1" vertex="1">
          <mxGeometry x="701" y="802.5" width="549" height="40" as="geometry" />
        </mxCell>
        <mxCell id="cdBDi0reQEbNQOHo2eeN-55" value="&lt;div&gt;lcp-portal-frame&lt;/div&gt;&lt;div&gt;(天舟云门户框架)&lt;/div&gt;" style="rounded=0;whiteSpace=wrap;html=1;" parent="1" vertex="1">
          <mxGeometry x="701" y="752.5" width="279" height="40" as="geometry" />
        </mxCell>
        <mxCell id="cdBDi0reQEbNQOHo2eeN-57" value="" style="rounded=0;whiteSpace=wrap;html=1;fillColor=#b1ddf0;strokeColor=#10739e;" parent="1" vertex="1">
          <mxGeometry x="690" y="492.5" width="430" height="237.5" as="geometry" />
        </mxCell>
        <mxCell id="cdBDi0reQEbNQOHo2eeN-59" value="data-object(对象、变更渲染器)" style="text;html=1;align=left;verticalAlign=middle;whiteSpace=wrap;rounded=0;" parent="1" vertex="1">
          <mxGeometry x="700" y="492.5" width="200" height="30" as="geometry" />
        </mxCell>
        <mxCell id="cdBDi0reQEbNQOHo2eeN-60" value="DataObjectCreate" style="rounded=0;whiteSpace=wrap;html=1;fillColor=#f8cecc;strokeColor=#b85450;" parent="1" vertex="1">
          <mxGeometry x="700" y="675" width="200" height="40" as="geometry" />
        </mxCell>
        <mxCell id="cdBDi0reQEbNQOHo2eeN-61" value="DataObjectEdit" style="rounded=0;whiteSpace=wrap;html=1;fillColor=#f8cecc;strokeColor=#b85450;" parent="1" vertex="1">
          <mxGeometry x="910" y="675" width="200" height="40" as="geometry" />
        </mxCell>
        <mxCell id="cdBDi0reQEbNQOHo2eeN-62" value="" style="rounded=0;whiteSpace=wrap;html=1;fillColor=#b0e3e6;strokeColor=#0e8088;" parent="1" vertex="1">
          <mxGeometry x="700" y="522.5" width="410" height="140" as="geometry" />
        </mxCell>
        <mxCell id="cdBDi0reQEbNQOHo2eeN-63" value="Plugins" style="text;html=1;align=left;verticalAlign=middle;whiteSpace=wrap;rounded=0;" parent="1" vertex="1">
          <mxGeometry x="710" y="522.5" width="200" height="30" as="geometry" />
        </mxCell>
        <mxCell id="cdBDi0reQEbNQOHo2eeN-69" value="属性" style="rounded=0;whiteSpace=wrap;html=1;fillColor=#f8cecc;strokeColor=#b85450;" parent="1" vertex="1">
          <mxGeometry x="710" y="552.5" width="90" height="40" as="geometry" />
        </mxCell>
        <mxCell id="cdBDi0reQEbNQOHo2eeN-70" value="附件" style="rounded=0;whiteSpace=wrap;html=1;fillColor=#f8cecc;strokeColor=#b85450;" parent="1" vertex="1">
          <mxGeometry x="1010" y="552.5" width="90" height="40" as="geometry" />
        </mxCell>
        <mxCell id="cdBDi0reQEbNQOHo2eeN-72" value="BOM" style="rounded=0;whiteSpace=wrap;html=1;fillColor=#f8cecc;strokeColor=#b85450;" parent="1" vertex="1">
          <mxGeometry x="810" y="552.5" width="90" height="40" as="geometry" />
        </mxCell>
        <mxCell id="cdBDi0reQEbNQOHo2eeN-73" value="受影响物件" style="rounded=0;whiteSpace=wrap;html=1;fillColor=#f8cecc;strokeColor=#b85450;" parent="1" vertex="1">
          <mxGeometry x="910" y="552.5" width="90" height="40" as="geometry" />
        </mxCell>
        <mxCell id="cdBDi0reQEbNQOHo2eeN-74" value="关联关系" style="rounded=0;whiteSpace=wrap;html=1;fillColor=#f8cecc;strokeColor=#b85450;" parent="1" vertex="1">
          <mxGeometry x="710" y="603.75" width="90" height="40" as="geometry" />
        </mxCell>
        <mxCell id="cdBDi0reQEbNQOHo2eeN-75" value="使用位置" style="rounded=0;whiteSpace=wrap;html=1;fillColor=#f8cecc;strokeColor=#b85450;" parent="1" vertex="1">
          <mxGeometry x="810" y="603.75" width="90" height="40" as="geometry" />
        </mxCell>
        <mxCell id="cdBDi0reQEbNQOHo2eeN-2" value="" style="rounded=0;whiteSpace=wrap;html=1;fillColor=#b1ddf0;strokeColor=#10739e;" parent="1" vertex="1">
          <mxGeometry x="950" y="890" width="310" height="60" as="geometry" />
        </mxCell>
        <mxCell id="cdBDi0reQEbNQOHo2eeN-3" value="版本管理" style="rounded=0;whiteSpace=wrap;html=1;fillColor=#f8cecc;strokeColor=#b85450;" parent="1" vertex="1">
          <mxGeometry x="960" y="900" width="140" height="40" as="geometry" />
        </mxCell>
        <mxCell id="cdBDi0reQEbNQOHo2eeN-4" value="生命周期管理" style="rounded=0;whiteSpace=wrap;html=1;fillColor=#f8cecc;strokeColor=#b85450;" parent="1" vertex="1">
          <mxGeometry x="1110" y="900" width="140" height="40" as="geometry" />
        </mxCell>
        <mxCell id="cdBDi0reQEbNQOHo2eeN-79" value="SAAS PLM" style="text;html=1;align=left;verticalAlign=middle;whiteSpace=wrap;rounded=0;" parent="1" vertex="1">
          <mxGeometry x="170" y="340" width="110" height="30" as="geometry" />
        </mxCell>
        <mxCell id="cdBDi0reQEbNQOHo2eeN-80" value="物件" style="rounded=0;whiteSpace=wrap;html=1;fillColor=#d5e8d4;strokeColor=#82b366;" parent="1" vertex="1">
          <mxGeometry x="170" y="370" width="130" height="40" as="geometry" />
        </mxCell>
        <mxCell id="cdBDi0reQEbNQOHo2eeN-81" value="文档" style="rounded=0;whiteSpace=wrap;html=1;fillColor=#d5e8d4;strokeColor=#82b366;" parent="1" vertex="1">
          <mxGeometry x="450" y="370" width="130" height="40" as="geometry" />
        </mxCell>
        <mxCell id="cdBDi0reQEbNQOHo2eeN-82" value="变更" style="rounded=0;whiteSpace=wrap;html=1;fillColor=#d5e8d4;strokeColor=#82b366;" parent="1" vertex="1">
          <mxGeometry x="590" y="370" width="130" height="40" as="geometry" />
        </mxCell>
        <mxCell id="cdBDi0reQEbNQOHo2eeN-83" value="产品" style="rounded=0;whiteSpace=wrap;html=1;fillColor=#d5e8d4;strokeColor=#82b366;" parent="1" vertex="1">
          <mxGeometry x="310" y="370" width="130" height="40" as="geometry" />
        </mxCell>
        <mxCell id="cdBDi0reQEbNQOHo2eeN-84" value="替代料" style="rounded=0;whiteSpace=wrap;html=1;fillColor=#d5e8d4;strokeColor=#82b366;" parent="1" vertex="1">
          <mxGeometry x="730" y="370" width="130" height="40" as="geometry" />
        </mxCell>
        <mxCell id="cdBDi0reQEbNQOHo2eeN-85" value="BOM转换工具" style="rounded=0;whiteSpace=wrap;html=1;fillColor=#d5e8d4;strokeColor=#82b366;" parent="1" vertex="1">
          <mxGeometry x="871" y="370" width="130" height="40" as="geometry" />
        </mxCell>
        <mxCell id="cdBDi0reQEbNQOHo2eeN-86" value="..." style="rounded=0;whiteSpace=wrap;html=1;fillColor=#d5e8d4;strokeColor=#82b366;" parent="1" vertex="1">
          <mxGeometry x="1010" y="370" width="110" height="40" as="geometry" />
        </mxCell>
        <mxCell id="cdBDi0reQEbNQOHo2eeN-88" value="&lt;div&gt;cir-csb-router&lt;/div&gt;&lt;div&gt;&amp;nbsp;(CSB系统跳转库)&lt;/div&gt;" style="rounded=0;whiteSpace=wrap;html=1;" parent="1" vertex="1">
          <mxGeometry x="990" y="752.5" width="260" height="40" as="geometry" />
        </mxCell>
        <mxCell id="cdBDi0reQEbNQOHo2eeN-89" value="" style="rounded=0;whiteSpace=wrap;html=1;fillColor=#b1ddf0;strokeColor=#10739e;" parent="1" vertex="1">
          <mxGeometry x="1130" y="492.5" width="130" height="237.5" as="geometry" />
        </mxCell>
        <mxCell id="cdBDi0reQEbNQOHo2eeN-90" value="BOM转换工具" style="rounded=0;whiteSpace=wrap;html=1;fillColor=#f8cecc;strokeColor=#b85450;" parent="1" vertex="1">
          <mxGeometry x="1140" y="553.75" width="110" height="40" as="geometry" />
        </mxCell>
        <mxCell id="cdBDi0reQEbNQOHo2eeN-91" value="定制页面" style="text;html=1;align=left;verticalAlign=middle;whiteSpace=wrap;rounded=0;" parent="1" vertex="1">
          <mxGeometry x="1140" y="492.5" width="60" height="30" as="geometry" />
        </mxCell>
        <mxCell id="cdBDi0reQEbNQOHo2eeN-93" value="..." style="rounded=0;whiteSpace=wrap;html=1;fillColor=#f8cecc;strokeColor=#b85450;" parent="1" vertex="1">
          <mxGeometry x="911" y="603.75" width="90" height="40" as="geometry" />
        </mxCell>
      </root>
    </mxGraphModel>
  </diagram>
  <diagram id="jaghECrdHOMQKR1FU3zA" name="第 2 页">
    <mxGraphModel dx="2066" dy="1160" grid="1" gridSize="10" guides="1" tooltips="1" connect="1" arrows="1" fold="1" page="1" pageScale="1" pageWidth="827" pageHeight="1169" math="0" shadow="0">
      <root>
        <mxCell id="0" />
        <mxCell id="1" parent="0" />
        <mxCell id="Xsfd6NdF0XZforxdzl2r-1" style="edgeStyle=orthogonalEdgeStyle;rounded=0;orthogonalLoop=1;jettySize=auto;html=1;exitX=1;exitY=0.5;exitDx=0;exitDy=0;entryX=0;entryY=0.5;entryDx=0;entryDy=0;" parent="1" source="Xsfd6NdF0XZforxdzl2r-2" target="Xsfd6NdF0XZforxdzl2r-16" edge="1">
          <mxGeometry relative="1" as="geometry" />
        </mxCell>
        <mxCell id="Xsfd6NdF0XZforxdzl2r-2" value="" style="rounded=0;whiteSpace=wrap;html=1;fillColor=#dae8fc;strokeColor=#6c8ebf;" parent="1" vertex="1">
          <mxGeometry x="90" y="190" width="150" height="280" as="geometry" />
        </mxCell>
        <mxCell id="Xsfd6NdF0XZforxdzl2r-3" value="&lt;span style=&quot;text-align: center;&quot;&gt;对象管理&lt;/span&gt;" style="text;html=1;align=left;verticalAlign=middle;whiteSpace=wrap;rounded=0;" parent="1" vertex="1">
          <mxGeometry x="100" y="190" width="130" height="30" as="geometry" />
        </mxCell>
        <mxCell id="Xsfd6NdF0XZforxdzl2r-4" value="页签管理" style="rounded=0;whiteSpace=wrap;html=1;fillColor=#f8cecc;strokeColor=#b85450;" parent="1" vertex="1">
          <mxGeometry x="100" y="270" width="130" height="40" as="geometry" />
        </mxCell>
        <mxCell id="Xsfd6NdF0XZforxdzl2r-5" value="属性管理" style="rounded=0;whiteSpace=wrap;html=1;fillColor=#f8cecc;strokeColor=#b85450;" parent="1" vertex="1">
          <mxGeometry x="100" y="320" width="130" height="40" as="geometry" />
        </mxCell>
        <mxCell id="Xsfd6NdF0XZforxdzl2r-6" value="分类管理" style="rounded=0;whiteSpace=wrap;html=1;fillColor=#f8cecc;strokeColor=#b85450;" parent="1" vertex="1">
          <mxGeometry x="100" y="220" width="130" height="40" as="geometry" />
        </mxCell>
        <mxCell id="Xsfd6NdF0XZforxdzl2r-7" value="属性联动" style="rounded=0;whiteSpace=wrap;html=1;fillColor=#f8cecc;strokeColor=#b85450;" parent="1" vertex="1">
          <mxGeometry x="100" y="370" width="130" height="40" as="geometry" />
        </mxCell>
        <mxCell id="Xsfd6NdF0XZforxdzl2r-8" value="流程管理" style="rounded=0;whiteSpace=wrap;html=1;fillColor=#f8cecc;strokeColor=#b85450;" parent="1" vertex="1">
          <mxGeometry x="100" y="420" width="130" height="40" as="geometry" />
        </mxCell>
        <mxCell id="Xsfd6NdF0XZforxdzl2r-9" value="" style="rounded=0;whiteSpace=wrap;html=1;fillColor=#dae8fc;strokeColor=#6c8ebf;" parent="1" vertex="1">
          <mxGeometry x="560" y="190" width="150" height="280" as="geometry" />
        </mxCell>
        <mxCell id="Xsfd6NdF0XZforxdzl2r-10" value="产品" style="rounded=0;whiteSpace=wrap;html=1;fillColor=#f8cecc;strokeColor=#b85450;" parent="1" vertex="1">
          <mxGeometry x="570" y="270" width="130" height="40" as="geometry" />
        </mxCell>
        <mxCell id="Xsfd6NdF0XZforxdzl2r-11" value="文档" style="rounded=0;whiteSpace=wrap;html=1;fillColor=#f8cecc;strokeColor=#b85450;" parent="1" vertex="1">
          <mxGeometry x="570" y="320" width="130" height="40" as="geometry" />
        </mxCell>
        <mxCell id="Xsfd6NdF0XZforxdzl2r-12" value="物件" style="rounded=0;whiteSpace=wrap;html=1;fillColor=#f8cecc;strokeColor=#b85450;" parent="1" vertex="1">
          <mxGeometry x="570" y="220" width="130" height="40" as="geometry" />
        </mxCell>
        <mxCell id="Xsfd6NdF0XZforxdzl2r-13" value="变更" style="rounded=0;whiteSpace=wrap;html=1;fillColor=#f8cecc;strokeColor=#b85450;" parent="1" vertex="1">
          <mxGeometry x="570" y="370" width="130" height="40" as="geometry" />
        </mxCell>
        <mxCell id="Xsfd6NdF0XZforxdzl2r-14" value="BOM" style="rounded=0;whiteSpace=wrap;html=1;fillColor=#f8cecc;strokeColor=#b85450;" parent="1" vertex="1">
          <mxGeometry x="570" y="420" width="130" height="40" as="geometry" />
        </mxCell>
        <mxCell id="Xsfd6NdF0XZforxdzl2r-15" style="edgeStyle=orthogonalEdgeStyle;rounded=0;orthogonalLoop=1;jettySize=auto;html=1;exitX=1;exitY=0.5;exitDx=0;exitDy=0;entryX=0;entryY=0.5;entryDx=0;entryDy=0;" parent="1" source="Xsfd6NdF0XZforxdzl2r-16" target="Xsfd6NdF0XZforxdzl2r-9" edge="1">
          <mxGeometry relative="1" as="geometry" />
        </mxCell>
        <mxCell id="Xsfd6NdF0XZforxdzl2r-16" value="界面方案配置" style="shape=document;whiteSpace=wrap;html=1;boundedLbl=1;fillColor=#dae8fc;strokeColor=#6c8ebf;rounded=0;" parent="1" vertex="1">
          <mxGeometry x="340" y="290" width="120" height="80" as="geometry" />
        </mxCell>
        <mxCell id="Xsfd6NdF0XZforxdzl2r-17" value="&lt;div style=&quot;text-align: center;&quot;&gt;产品数据&lt;/div&gt;" style="text;html=1;align=left;verticalAlign=middle;whiteSpace=wrap;rounded=0;" parent="1" vertex="1">
          <mxGeometry x="570" y="190" width="130" height="30" as="geometry" />
        </mxCell>
      </root>
    </mxGraphModel>
  </diagram>
  <diagram id="G8uqmye7FvnP_egUECt8" name="第 3 页">
    <mxGraphModel dx="2893" dy="1160" grid="1" gridSize="10" guides="1" tooltips="1" connect="1" arrows="1" fold="1" page="1" pageScale="1" pageWidth="827" pageHeight="1169" math="0" shadow="0">
      <root>
        <mxCell id="0" />
        <mxCell id="1" parent="0" />
        <mxCell id="0XkKg0ThzUCSBkoOgWhd-1" value="" style="rounded=0;whiteSpace=wrap;html=1;fillColor=#dae8fc;strokeColor=#6c8ebf;" parent="1" vertex="1">
          <mxGeometry x="-40" y="640" width="660" height="300" as="geometry" />
        </mxCell>
        <mxCell id="0XkKg0ThzUCSBkoOgWhd-4" value="" style="rounded=0;whiteSpace=wrap;html=1;fillColor=#dae8fc;strokeColor=#6c8ebf;" parent="1" vertex="1">
          <mxGeometry x="-40" y="1040" width="1420" height="60" as="geometry" />
        </mxCell>
        <mxCell id="0XkKg0ThzUCSBkoOgWhd-5" value="配置端" style="text;html=1;align=left;verticalAlign=middle;whiteSpace=wrap;rounded=0;" parent="1" vertex="1">
          <mxGeometry x="-30" y="642.5" width="160" height="30" as="geometry" />
        </mxCell>
        <mxCell id="0XkKg0ThzUCSBkoOgWhd-11" value="" style="rounded=0;whiteSpace=wrap;html=1;fillColor=#b1ddf0;strokeColor=#10739e;" parent="1" vertex="1">
          <mxGeometry x="-30" y="690" width="360" height="213.75" as="geometry" />
        </mxCell>
        <mxCell id="0XkKg0ThzUCSBkoOgWhd-12" value="" style="rounded=0;whiteSpace=wrap;html=1;fillColor=#b0e3e6;strokeColor=#0e8088;" parent="1" vertex="1">
          <mxGeometry x="50" y="730" width="270" height="113.75" as="geometry" />
        </mxCell>
        <mxCell id="0XkKg0ThzUCSBkoOgWhd-14" value="" style="rounded=0;whiteSpace=wrap;html=1;fillColor=#dae8fc;strokeColor=#6c8ebf;" parent="1" vertex="1">
          <mxGeometry x="-40" y="540" width="1420" height="80" as="geometry" />
        </mxCell>
        <mxCell id="0XkKg0ThzUCSBkoOgWhd-15" value="对象管理" style="rounded=0;whiteSpace=wrap;html=1;" parent="1" vertex="1">
          <mxGeometry x="-20" y="730" width="60" height="163.75" as="geometry" />
        </mxCell>
        <mxCell id="0XkKg0ThzUCSBkoOgWhd-16" value="页签管理" style="rounded=0;whiteSpace=wrap;html=1;" parent="1" vertex="1">
          <mxGeometry x="50" y="853.75" width="270" height="40" as="geometry" />
        </mxCell>
        <mxCell id="0XkKg0ThzUCSBkoOgWhd-17" value="属性管理" style="rounded=0;whiteSpace=wrap;html=1;" parent="1" vertex="1">
          <mxGeometry x="60" y="740" width="120" height="40" as="geometry" />
        </mxCell>
        <mxCell id="0XkKg0ThzUCSBkoOgWhd-18" value="首选项配置" style="rounded=0;whiteSpace=wrap;html=1;" parent="1" vertex="1">
          <mxGeometry x="190" y="740" width="120" height="40" as="geometry" />
        </mxCell>
        <mxCell id="0XkKg0ThzUCSBkoOgWhd-19" value="属性联动" style="rounded=0;whiteSpace=wrap;html=1;" parent="1" vertex="1">
          <mxGeometry x="60" y="791.25" width="120" height="40" as="geometry" />
        </mxCell>
        <mxCell id="0XkKg0ThzUCSBkoOgWhd-20" value="插件管理" style="rounded=0;whiteSpace=wrap;html=1;" parent="1" vertex="1">
          <mxGeometry x="190" y="793.75" width="120" height="40" as="geometry" />
        </mxCell>
        <mxCell id="0XkKg0ThzUCSBkoOgWhd-21" value="" style="rounded=0;whiteSpace=wrap;html=1;fillColor=#dae8fc;strokeColor=#6c8ebf;" parent="1" vertex="1">
          <mxGeometry x="640" y="640" width="590" height="300" as="geometry" />
        </mxCell>
        <mxCell id="0XkKg0ThzUCSBkoOgWhd-22" value="用户端" style="text;html=1;align=left;verticalAlign=middle;whiteSpace=wrap;rounded=0;" parent="1" vertex="1">
          <mxGeometry x="650" y="642.5" width="140" height="30" as="geometry" />
        </mxCell>
        <mxCell id="0XkKg0ThzUCSBkoOgWhd-23" value="" style="rounded=0;whiteSpace=wrap;html=1;fillColor=#ffe6cc;strokeColor=#d79b00;" parent="1" vertex="1">
          <mxGeometry x="1250" y="640" width="130" height="300" as="geometry" />
        </mxCell>
        <mxCell id="0XkKg0ThzUCSBkoOgWhd-25" value="&lt;div&gt;动态表单渲染器&lt;/div&gt;" style="rounded=0;whiteSpace=wrap;html=1;" parent="1" vertex="1">
          <mxGeometry x="1260" y="693.13" width="110" height="40" as="geometry" />
        </mxCell>
        <mxCell id="0XkKg0ThzUCSBkoOgWhd-26" value="&lt;div&gt;条件选择器&lt;/div&gt;" style="rounded=0;whiteSpace=wrap;html=1;" parent="1" vertex="1">
          <mxGeometry x="1260" y="751.25" width="110" height="40" as="geometry" />
        </mxCell>
        <mxCell id="0XkKg0ThzUCSBkoOgWhd-27" value="&lt;div&gt;视图&lt;/div&gt;" style="rounded=0;whiteSpace=wrap;html=1;" parent="1" vertex="1">
          <mxGeometry x="1260" y="812.5" width="110" height="40" as="geometry" />
        </mxCell>
        <mxCell id="0XkKg0ThzUCSBkoOgWhd-32" value="" style="rounded=0;whiteSpace=wrap;html=1;fillColor=#b1ddf0;strokeColor=#10739e;" parent="1" vertex="1">
          <mxGeometry x="650" y="692.5" width="430" height="237.5" as="geometry" />
        </mxCell>
        <mxCell id="0XkKg0ThzUCSBkoOgWhd-33" value="InterfaceApplicationForm" style="text;html=1;align=left;verticalAlign=middle;whiteSpace=wrap;rounded=0;" parent="1" vertex="1">
          <mxGeometry x="660" y="692.5" width="200" height="30" as="geometry" />
        </mxCell>
        <mxCell id="0XkKg0ThzUCSBkoOgWhd-34" value="Create" style="rounded=0;whiteSpace=wrap;html=1;" parent="1" vertex="1">
          <mxGeometry x="660" y="875" width="200" height="40" as="geometry" />
        </mxCell>
        <mxCell id="0XkKg0ThzUCSBkoOgWhd-35" value="Detail" style="rounded=0;whiteSpace=wrap;html=1;" parent="1" vertex="1">
          <mxGeometry x="870" y="875" width="200" height="40" as="geometry" />
        </mxCell>
        <mxCell id="0XkKg0ThzUCSBkoOgWhd-36" value="" style="rounded=0;whiteSpace=wrap;html=1;fillColor=#b0e3e6;strokeColor=#0e8088;" parent="1" vertex="1">
          <mxGeometry x="660" y="722.5" width="410" height="140" as="geometry" />
        </mxCell>
        <mxCell id="0XkKg0ThzUCSBkoOgWhd-37" value="Tags" style="text;html=1;align=left;verticalAlign=middle;whiteSpace=wrap;rounded=0;" parent="1" vertex="1">
          <mxGeometry x="670" y="722.5" width="200" height="30" as="geometry" />
        </mxCell>
        <mxCell id="0XkKg0ThzUCSBkoOgWhd-38" value="属性" style="rounded=0;whiteSpace=wrap;html=1;" parent="1" vertex="1">
          <mxGeometry x="670" y="752.5" width="90" height="40" as="geometry" />
        </mxCell>
        <mxCell id="0XkKg0ThzUCSBkoOgWhd-39" value="附件" style="rounded=0;whiteSpace=wrap;html=1;" parent="1" vertex="1">
          <mxGeometry x="970" y="752.5" width="90" height="40" as="geometry" />
        </mxCell>
        <mxCell id="0XkKg0ThzUCSBkoOgWhd-40" value="BOM" style="rounded=0;whiteSpace=wrap;html=1;" parent="1" vertex="1">
          <mxGeometry x="770" y="752.5" width="90" height="40" as="geometry" />
        </mxCell>
        <mxCell id="0XkKg0ThzUCSBkoOgWhd-41" value="受影响物件" style="rounded=0;whiteSpace=wrap;html=1;" parent="1" vertex="1">
          <mxGeometry x="870" y="752.5" width="90" height="40" as="geometry" />
        </mxCell>
        <mxCell id="0XkKg0ThzUCSBkoOgWhd-42" value="关联关系" style="rounded=0;whiteSpace=wrap;html=1;" parent="1" vertex="1">
          <mxGeometry x="670" y="803.75" width="90" height="40" as="geometry" />
        </mxCell>
        <mxCell id="0XkKg0ThzUCSBkoOgWhd-43" value="使用位置" style="rounded=0;whiteSpace=wrap;html=1;" parent="1" vertex="1">
          <mxGeometry x="770" y="803.75" width="90" height="40" as="geometry" />
        </mxCell>
        <mxCell id="0XkKg0ThzUCSBkoOgWhd-47" value="SAAS PLM" style="text;html=1;align=left;verticalAlign=middle;whiteSpace=wrap;rounded=0;" parent="1" vertex="1">
          <mxGeometry x="-30" y="540" width="110" height="30" as="geometry" />
        </mxCell>
        <mxCell id="0XkKg0ThzUCSBkoOgWhd-48" value="物件" style="rounded=0;whiteSpace=wrap;html=1;fillColor=#d5e8d4;strokeColor=#82b366;" parent="1" vertex="1">
          <mxGeometry x="-30" y="570" width="130" height="40" as="geometry" />
        </mxCell>
        <mxCell id="0XkKg0ThzUCSBkoOgWhd-49" value="文档" style="rounded=0;whiteSpace=wrap;html=1;fillColor=#d5e8d4;strokeColor=#82b366;" parent="1" vertex="1">
          <mxGeometry x="250" y="570" width="130" height="40" as="geometry" />
        </mxCell>
        <mxCell id="0XkKg0ThzUCSBkoOgWhd-50" value="变更" style="rounded=0;whiteSpace=wrap;html=1;fillColor=#d5e8d4;strokeColor=#82b366;" parent="1" vertex="1">
          <mxGeometry x="390" y="570" width="130" height="40" as="geometry" />
        </mxCell>
        <mxCell id="0XkKg0ThzUCSBkoOgWhd-51" value="产品" style="rounded=0;whiteSpace=wrap;html=1;fillColor=#d5e8d4;strokeColor=#82b366;" parent="1" vertex="1">
          <mxGeometry x="110" y="570" width="130" height="40" as="geometry" />
        </mxCell>
        <mxCell id="0XkKg0ThzUCSBkoOgWhd-52" value="替代料" style="rounded=0;whiteSpace=wrap;html=1;fillColor=#d5e8d4;strokeColor=#82b366;" parent="1" vertex="1">
          <mxGeometry x="530" y="570" width="130" height="40" as="geometry" />
        </mxCell>
        <mxCell id="0XkKg0ThzUCSBkoOgWhd-53" value="试产" style="rounded=0;whiteSpace=wrap;html=1;fillColor=#d5e8d4;strokeColor=#82b366;" parent="1" vertex="1">
          <mxGeometry x="671" y="570" width="130" height="40" as="geometry" />
        </mxCell>
        <mxCell id="0XkKg0ThzUCSBkoOgWhd-54" value="..." style="rounded=0;whiteSpace=wrap;html=1;fillColor=#d5e8d4;strokeColor=#82b366;" parent="1" vertex="1">
          <mxGeometry x="810" y="570" width="110" height="40" as="geometry" />
        </mxCell>
        <mxCell id="0XkKg0ThzUCSBkoOgWhd-56" value="" style="rounded=0;whiteSpace=wrap;html=1;fillColor=#b1ddf0;strokeColor=#10739e;" parent="1" vertex="1">
          <mxGeometry x="1090" y="693.13" width="130" height="237.5" as="geometry" />
        </mxCell>
        <mxCell id="0XkKg0ThzUCSBkoOgWhd-57" value="BOM转换工具" style="rounded=0;whiteSpace=wrap;html=1;" parent="1" vertex="1">
          <mxGeometry x="1100" y="725.63" width="110" height="40" as="geometry" />
        </mxCell>
        <mxCell id="0XkKg0ThzUCSBkoOgWhd-58" value="页面" style="text;html=1;align=left;verticalAlign=middle;whiteSpace=wrap;rounded=0;" parent="1" vertex="1">
          <mxGeometry x="1100" y="693.13" width="60" height="30" as="geometry" />
        </mxCell>
        <mxCell id="0XkKg0ThzUCSBkoOgWhd-59" value="..." style="rounded=0;whiteSpace=wrap;html=1;" parent="1" vertex="1">
          <mxGeometry x="871" y="803.75" width="90" height="40" as="geometry" />
        </mxCell>
        <mxCell id="0XkKg0ThzUCSBkoOgWhd-60" value="框架" style="text;html=1;align=left;verticalAlign=middle;whiteSpace=wrap;rounded=0;" parent="1" vertex="1">
          <mxGeometry x="-15" y="1055" width="50" height="30" as="geometry" />
        </mxCell>
        <mxCell id="0XkKg0ThzUCSBkoOgWhd-61" value="React" style="rounded=0;whiteSpace=wrap;html=1;" parent="1" vertex="1">
          <mxGeometry x="77" y="1050" width="130" height="40" as="geometry" />
        </mxCell>
        <mxCell id="0XkKg0ThzUCSBkoOgWhd-62" value="Mobx" style="rounded=0;whiteSpace=wrap;html=1;" parent="1" vertex="1">
          <mxGeometry x="217" y="1050" width="130" height="40" as="geometry" />
        </mxCell>
        <mxCell id="0XkKg0ThzUCSBkoOgWhd-63" value="Antd" style="rounded=0;whiteSpace=wrap;html=1;" parent="1" vertex="1">
          <mxGeometry x="357" y="1050" width="130" height="40" as="geometry" />
        </mxCell>
        <mxCell id="0XkKg0ThzUCSBkoOgWhd-64" value="..." style="rounded=0;whiteSpace=wrap;html=1;" parent="1" vertex="1">
          <mxGeometry x="497" y="1050" width="130" height="40" as="geometry" />
        </mxCell>
        <mxCell id="0XkKg0ThzUCSBkoOgWhd-67" value="" style="rounded=0;whiteSpace=wrap;html=1;fillColor=#dae8fc;strokeColor=#6c8ebf;" parent="1" vertex="1">
          <mxGeometry x="-40" y="960" width="1270" height="60" as="geometry" />
        </mxCell>
        <mxCell id="0XkKg0ThzUCSBkoOgWhd-68" value="&lt;div&gt;layout&lt;/div&gt;" style="rounded=0;whiteSpace=wrap;html=1;" parent="1" vertex="1">
          <mxGeometry x="-29" y="970" width="119" height="40" as="geometry" />
        </mxCell>
        <mxCell id="0XkKg0ThzUCSBkoOgWhd-69" value="&lt;div&gt;Route&lt;/div&gt;" style="rounded=0;whiteSpace=wrap;html=1;" parent="1" vertex="1">
          <mxGeometry x="100" y="970" width="119" height="40" as="geometry" />
        </mxCell>
        <mxCell id="0XkKg0ThzUCSBkoOgWhd-70" value="&lt;div&gt;Nav&lt;/div&gt;" style="rounded=0;whiteSpace=wrap;html=1;" parent="1" vertex="1">
          <mxGeometry x="228" y="970" width="119" height="40" as="geometry" />
        </mxCell>
        <mxCell id="0XkKg0ThzUCSBkoOgWhd-46" value="各种规则配置界面" style="rounded=0;whiteSpace=wrap;html=1;" parent="1" vertex="1">
          <mxGeometry x="1100" y="772.5" width="110" height="40" as="geometry" />
        </mxCell>
        <mxCell id="0XkKg0ThzUCSBkoOgWhd-72" value="" style="rounded=0;whiteSpace=wrap;html=1;fillColor=#b1ddf0;strokeColor=#10739e;" parent="1" vertex="1">
          <mxGeometry x="340" y="690" width="270" height="213.75" as="geometry" />
        </mxCell>
        <mxCell id="0XkKg0ThzUCSBkoOgWhd-73" value="其它配置" style="text;html=1;align=left;verticalAlign=middle;whiteSpace=wrap;rounded=0;" parent="1" vertex="1">
          <mxGeometry x="350" y="692.5" width="255" height="30" as="geometry" />
        </mxCell>
        <mxCell id="0XkKg0ThzUCSBkoOgWhd-74" value="条件管理" style="rounded=0;whiteSpace=wrap;html=1;" parent="1" vertex="1">
          <mxGeometry x="350" y="730" width="120" height="40" as="geometry" />
        </mxCell>
        <mxCell id="0XkKg0ThzUCSBkoOgWhd-75" value="事件管理" style="rounded=0;whiteSpace=wrap;html=1;" parent="1" vertex="1">
          <mxGeometry x="350" y="780" width="120" height="40" as="geometry" />
        </mxCell>
        <mxCell id="0XkKg0ThzUCSBkoOgWhd-76" value="工作流配置" style="rounded=0;whiteSpace=wrap;html=1;" parent="1" vertex="1">
          <mxGeometry x="350" y="831.25" width="120" height="40" as="geometry" />
        </mxCell>
        <mxCell id="0XkKg0ThzUCSBkoOgWhd-45" value="版本管理" style="rounded=0;whiteSpace=wrap;html=1;" parent="1" vertex="1">
          <mxGeometry x="480" y="730" width="110" height="40" as="geometry" />
        </mxCell>
        <mxCell id="0XkKg0ThzUCSBkoOgWhd-71" value="生命周期管理" style="rounded=0;whiteSpace=wrap;html=1;" parent="1" vertex="1">
          <mxGeometry x="480" y="780" width="110" height="40" as="geometry" />
        </mxCell>
        <mxCell id="0XkKg0ThzUCSBkoOgWhd-77" value="..." style="rounded=0;whiteSpace=wrap;html=1;" parent="1" vertex="1">
          <mxGeometry x="480" y="831.25" width="110" height="40" as="geometry" />
        </mxCell>
        <mxCell id="0XkKg0ThzUCSBkoOgWhd-84" value="ObjectDataManage" style="text;html=1;align=left;verticalAlign=middle;whiteSpace=wrap;rounded=0;" parent="1" vertex="1">
          <mxGeometry x="-20" y="692.5" width="200" height="30" as="geometry" />
        </mxCell>
      </root>
    </mxGraphModel>
  </diagram>
  <diagram id="WR-T1Fou2k_0tkYkdfE7" name="第 4 页">
    <mxGraphModel dx="2066" dy="1160" grid="1" gridSize="10" guides="1" tooltips="1" connect="1" arrows="1" fold="1" page="1" pageScale="1" pageWidth="827" pageHeight="1169" math="0" shadow="0">
      <root>
        <mxCell id="0" />
        <mxCell id="1" parent="0" />
        <mxCell id="allgba2KqmO8Yd96sCUT-1" value="" style="rounded=0;whiteSpace=wrap;html=1;strokeWidth=0;fillColor=#f5f5f5;fontColor=#333333;strokeColor=#666666;" parent="1" vertex="1">
          <mxGeometry x="40" y="270" width="730" height="580" as="geometry" />
        </mxCell>
        <mxCell id="Xr2e6Z_DD1zVuUHeZsat-46" value="" style="rounded=0;whiteSpace=wrap;html=1;" parent="1" vertex="1">
          <mxGeometry x="70" y="370" width="670" height="110" as="geometry" />
        </mxCell>
        <mxCell id="Xr2e6Z_DD1zVuUHeZsat-41" value="" style="rounded=0;whiteSpace=wrap;html=1;" parent="1" vertex="1">
          <mxGeometry x="70" y="500" width="670" height="320" as="geometry" />
        </mxCell>
        <mxCell id="Xr2e6Z_DD1zVuUHeZsat-1" value="" style="rounded=0;whiteSpace=wrap;html=1;" parent="1" vertex="1">
          <mxGeometry x="90" y="670" width="630" height="130" as="geometry" />
        </mxCell>
        <mxCell id="Xr2e6Z_DD1zVuUHeZsat-3" value="" style="rounded=0;whiteSpace=wrap;html=1;labelPosition=center;verticalLabelPosition=middle;align=center;verticalAlign=middle;" parent="1" vertex="1">
          <mxGeometry x="90" y="540" width="330" height="110" as="geometry" />
        </mxCell>
        <mxCell id="Xr2e6Z_DD1zVuUHeZsat-4" value="Core Button Extensions" style="text;html=1;align=left;verticalAlign=middle;whiteSpace=wrap;rounded=0;spacingLeft=10;" parent="1" vertex="1">
          <mxGeometry x="90" y="540" width="330" height="30" as="geometry" />
        </mxCell>
        <mxCell id="Xr2e6Z_DD1zVuUHeZsat-6" value="新增" style="rounded=0;whiteSpace=wrap;html=1;" parent="1" vertex="1">
          <mxGeometry x="100" y="570" width="70" height="30" as="geometry" />
        </mxCell>
        <mxCell id="Xr2e6Z_DD1zVuUHeZsat-7" value="删除" style="rounded=0;whiteSpace=wrap;html=1;" parent="1" vertex="1">
          <mxGeometry x="180" y="570" width="70" height="30" as="geometry" />
        </mxCell>
        <mxCell id="Xr2e6Z_DD1zVuUHeZsat-8" value="撤回" style="rounded=0;whiteSpace=wrap;html=1;" parent="1" vertex="1">
          <mxGeometry x="260" y="570" width="70" height="30" as="geometry" />
        </mxCell>
        <mxCell id="Xr2e6Z_DD1zVuUHeZsat-9" value="复制" style="rounded=0;whiteSpace=wrap;html=1;" parent="1" vertex="1">
          <mxGeometry x="340" y="570" width="70" height="30" as="geometry" />
        </mxCell>
        <mxCell id="Xr2e6Z_DD1zVuUHeZsat-10" value="粘贴" style="rounded=0;whiteSpace=wrap;html=1;" parent="1" vertex="1">
          <mxGeometry x="100" y="610" width="70" height="30" as="geometry" />
        </mxCell>
        <mxCell id="Xr2e6Z_DD1zVuUHeZsat-11" value="展开/折叠" style="rounded=0;whiteSpace=wrap;html=1;" parent="1" vertex="1">
          <mxGeometry x="180" y="610" width="70" height="30" as="geometry" />
        </mxCell>
        <mxCell id="Xr2e6Z_DD1zVuUHeZsat-12" value="..." style="rounded=0;whiteSpace=wrap;html=1;" parent="1" vertex="1">
          <mxGeometry x="340" y="610" width="70" height="30" as="geometry" />
        </mxCell>
        <mxCell id="Xr2e6Z_DD1zVuUHeZsat-13" value="查找" style="rounded=0;whiteSpace=wrap;html=1;" parent="1" vertex="1">
          <mxGeometry x="260" y="610" width="70" height="30" as="geometry" />
        </mxCell>
        <mxCell id="Xr2e6Z_DD1zVuUHeZsat-18" value="" style="rounded=0;whiteSpace=wrap;html=1;labelPosition=center;verticalLabelPosition=middle;align=center;verticalAlign=middle;" parent="1" vertex="1">
          <mxGeometry x="440" y="540" width="280" height="110" as="geometry" />
        </mxCell>
        <mxCell id="Xr2e6Z_DD1zVuUHeZsat-19" value="Core Column Extensions" style="text;html=1;align=left;verticalAlign=middle;whiteSpace=wrap;rounded=0;spacingLeft=10;" parent="1" vertex="1">
          <mxGeometry x="440" y="540" width="280" height="30" as="geometry" />
        </mxCell>
        <mxCell id="Xr2e6Z_DD1zVuUHeZsat-20" value="编号（树形）" style="rounded=0;whiteSpace=wrap;html=1;" parent="1" vertex="1">
          <mxGeometry x="450" y="570" width="80" height="30" as="geometry" />
        </mxCell>
        <mxCell id="Xr2e6Z_DD1zVuUHeZsat-21" value="位号" style="rounded=0;whiteSpace=wrap;html=1;" parent="1" vertex="1">
          <mxGeometry x="540" y="570" width="80" height="30" as="geometry" />
        </mxCell>
        <mxCell id="Xr2e6Z_DD1zVuUHeZsat-22" value="选择列" style="rounded=0;whiteSpace=wrap;html=1;" parent="1" vertex="1">
          <mxGeometry x="630" y="570" width="80" height="30" as="geometry" />
        </mxCell>
        <mxCell id="Xr2e6Z_DD1zVuUHeZsat-23" value="替代料" style="rounded=0;whiteSpace=wrap;html=1;" parent="1" vertex="1">
          <mxGeometry x="450" y="610" width="80" height="30" as="geometry" />
        </mxCell>
        <mxCell id="Xr2e6Z_DD1zVuUHeZsat-33" value="" style="rounded=0;whiteSpace=wrap;html=1;labelPosition=center;verticalLabelPosition=middle;align=center;verticalAlign=middle;" parent="1" vertex="1">
          <mxGeometry x="90" y="390" width="330" height="70" as="geometry" />
        </mxCell>
        <mxCell id="Xr2e6Z_DD1zVuUHeZsat-34" value="对比" style="rounded=0;whiteSpace=wrap;html=1;" parent="1" vertex="1">
          <mxGeometry x="100" y="420" width="70" height="30" as="geometry" />
        </mxCell>
        <mxCell id="Xr2e6Z_DD1zVuUHeZsat-35" value="Button Extensions" style="text;html=1;align=left;verticalAlign=middle;whiteSpace=wrap;rounded=0;spacingLeft=10;" parent="1" vertex="1">
          <mxGeometry x="90" y="390" width="170" height="30" as="geometry" />
        </mxCell>
        <mxCell id="Xr2e6Z_DD1zVuUHeZsat-36" value="" style="rounded=0;whiteSpace=wrap;html=1;labelPosition=center;verticalLabelPosition=middle;align=center;verticalAlign=middle;" parent="1" vertex="1">
          <mxGeometry x="440" y="390" width="280" height="70" as="geometry" />
        </mxCell>
        <mxCell id="Xr2e6Z_DD1zVuUHeZsat-37" value="Columns Extensions" style="text;html=1;align=left;verticalAlign=middle;whiteSpace=wrap;rounded=0;spacingLeft=10;" parent="1" vertex="1">
          <mxGeometry x="440" y="390" width="260" height="30" as="geometry" />
        </mxCell>
        <mxCell id="Xr2e6Z_DD1zVuUHeZsat-38" value="工序" style="rounded=0;whiteSpace=wrap;html=1;" parent="1" vertex="1">
          <mxGeometry x="450" y="420" width="80" height="30" as="geometry" />
        </mxCell>
        <mxCell id="Xr2e6Z_DD1zVuUHeZsat-39" value="关联BOM编号" style="rounded=0;whiteSpace=wrap;html=1;" parent="1" vertex="1">
          <mxGeometry x="540" y="420" width="90" height="30" as="geometry" />
        </mxCell>
        <mxCell id="Xr2e6Z_DD1zVuUHeZsat-40" value="引入替代料" style="rounded=0;whiteSpace=wrap;html=1;" parent="1" vertex="1">
          <mxGeometry x="180" y="420" width="90" height="30" as="geometry" />
        </mxCell>
        <mxCell id="Xr2e6Z_DD1zVuUHeZsat-44" value="ViewTable" style="rounded=0;whiteSpace=wrap;html=1;" parent="1" vertex="1">
          <mxGeometry x="100" y="750" width="610" height="40" as="geometry" />
        </mxCell>
        <mxCell id="Xr2e6Z_DD1zVuUHeZsat-45" value="BomCore" style="text;html=1;align=left;verticalAlign=middle;whiteSpace=wrap;rounded=0;spacingLeft=10;" parent="1" vertex="1">
          <mxGeometry x="80" y="500" width="120" height="30" as="geometry" />
        </mxCell>
        <mxCell id="Xr2e6Z_DD1zVuUHeZsat-48" value="BOM" style="rounded=0;whiteSpace=wrap;html=1;" parent="1" vertex="1">
          <mxGeometry x="70" y="300" width="670" height="50" as="geometry" />
        </mxCell>
        <mxCell id="allgba2KqmO8Yd96sCUT-2" value="查找编号" style="rounded=0;whiteSpace=wrap;html=1;" parent="1" vertex="1">
          <mxGeometry x="540" y="610" width="80" height="30" as="geometry" />
        </mxCell>
        <mxCell id="allgba2KqmO8Yd96sCUT-3" value="按钮扩展加载器" style="rounded=0;whiteSpace=wrap;html=1;" parent="1" vertex="1">
          <mxGeometry x="100" y="700" width="110" height="40" as="geometry" />
        </mxCell>
        <mxCell id="allgba2KqmO8Yd96sCUT-4" value="列扩展加载器" style="rounded=0;whiteSpace=wrap;html=1;" parent="1" vertex="1">
          <mxGeometry x="220" y="700" width="110" height="40" as="geometry" />
        </mxCell>
        <mxCell id="allgba2KqmO8Yd96sCUT-5" value="BomList" style="text;html=1;align=left;verticalAlign=middle;whiteSpace=wrap;rounded=0;spacingLeft=10;" parent="1" vertex="1">
          <mxGeometry x="90" y="670" width="120" height="30" as="geometry" />
        </mxCell>
      </root>
    </mxGraphModel>
  </diagram>
  <diagram id="z-ZOxFqqGU0u8KKilDAp" name="第 5 页">
    <mxGraphModel dx="2893" dy="1160" grid="1" gridSize="10" guides="1" tooltips="1" connect="1" arrows="1" fold="1" page="1" pageScale="1" pageWidth="827" pageHeight="1169" math="0" shadow="0">
      <root>
        <mxCell id="0" />
        <mxCell id="1" parent="0" />
        <mxCell id="SjH8sayAKu-z-4pkcVtZ-4" value="&lt;div style=&quot;text-align: left;&quot;&gt;&lt;br&gt;&lt;/div&gt;" style="rounded=0;whiteSpace=wrap;html=1;" vertex="1" parent="1">
          <mxGeometry x="-360" y="450" width="120" height="180" as="geometry" />
        </mxCell>
        <mxCell id="uKPBRUymARdzfmi3-JPQ-1" value="对象管理 配置端" style="text;html=1;align=left;verticalAlign=middle;whiteSpace=wrap;rounded=0;spacingLeft=10;" vertex="1" parent="1">
          <mxGeometry x="-360" y="450" width="120" height="30" as="geometry" />
        </mxCell>
        <mxCell id="uKPBRUymARdzfmi3-JPQ-2" value="页签配置" style="rounded=0;whiteSpace=wrap;html=1;" vertex="1" parent="1">
          <mxGeometry x="-340" y="480" width="80" height="30" as="geometry" />
        </mxCell>
        <mxCell id="uKPBRUymARdzfmi3-JPQ-3" value="属性联动" style="rounded=0;whiteSpace=wrap;html=1;" vertex="1" parent="1">
          <mxGeometry x="-340" y="515" width="80" height="30" as="geometry" />
        </mxCell>
        <mxCell id="uKPBRUymARdzfmi3-JPQ-4" value="首选项配置" style="rounded=0;whiteSpace=wrap;html=1;" vertex="1" parent="1">
          <mxGeometry x="-340" y="550" width="80" height="30" as="geometry" />
        </mxCell>
        <mxCell id="uKPBRUymARdzfmi3-JPQ-5" value="..." style="rounded=0;whiteSpace=wrap;html=1;" vertex="1" parent="1">
          <mxGeometry x="-340" y="585" width="80" height="30" as="geometry" />
        </mxCell>
        <mxCell id="uKPBRUymARdzfmi3-JPQ-7" value="" style="group" vertex="1" connectable="0" parent="1">
          <mxGeometry x="-380" y="175" width="140" height="50" as="geometry" />
        </mxCell>
        <mxCell id="SjH8sayAKu-z-4pkcVtZ-2" value="" style="rounded=0;whiteSpace=wrap;html=1;dashed=1;" vertex="1" parent="uKPBRUymARdzfmi3-JPQ-7">
          <mxGeometry width="140" height="50" as="geometry" />
        </mxCell>
        <mxCell id="SjH8sayAKu-z-4pkcVtZ-3" value="Plugin Center" style="text;html=1;align=left;verticalAlign=middle;whiteSpace=wrap;rounded=0;spacingLeft=10;" vertex="1" parent="uKPBRUymARdzfmi3-JPQ-7">
          <mxGeometry x="20" y="10" width="100" height="30" as="geometry" />
        </mxCell>
        <mxCell id="ASu68f97bZoogYDHbavn-1" value="资源中心（资源文件）" style="ellipse;shape=cloud;whiteSpace=wrap;html=1;" vertex="1" parent="1">
          <mxGeometry x="280" y="160" width="210" height="100" as="geometry" />
        </mxCell>
        <mxCell id="ASu68f97bZoogYDHbavn-4" value="&lt;div style=&quot;text-align: left;&quot;&gt;&lt;br&gt;&lt;/div&gt;" style="rounded=0;whiteSpace=wrap;html=1;" vertex="1" parent="1">
          <mxGeometry x="355" y="450" width="120" height="150" as="geometry" />
        </mxCell>
        <mxCell id="SjH8sayAKu-z-4pkcVtZ-10" value="" style="group" vertex="1" connectable="0" parent="1">
          <mxGeometry x="-260" y="210" width="140" height="150" as="geometry" />
        </mxCell>
        <mxCell id="SjH8sayAKu-z-4pkcVtZ-8" value="" style="shape=document;whiteSpace=wrap;html=1;boundedLbl=1;movable=1;resizable=1;rotatable=1;deletable=1;editable=1;locked=0;connectable=1;" vertex="1" parent="SjH8sayAKu-z-4pkcVtZ-10">
          <mxGeometry width="140" height="150" as="geometry" />
        </mxCell>
        <mxCell id="SjH8sayAKu-z-4pkcVtZ-9" value="applyType         插件类型&lt;br&gt;code              编码&lt;br&gt;description       描述&lt;div&gt;repositoryCode    资源名&lt;br&gt;&lt;/div&gt;&lt;div&gt;libraryCode       导出点名&lt;br&gt;&lt;/div&gt;&lt;div&gt;...&lt;/div&gt;" style="text;html=1;align=left;verticalAlign=middle;whiteSpace=wrap;rounded=0;spacingLeft=10;movable=1;resizable=1;rotatable=1;deletable=1;editable=1;locked=0;connectable=1;" vertex="1" parent="SjH8sayAKu-z-4pkcVtZ-10">
          <mxGeometry width="140" height="130" as="geometry" />
        </mxCell>
        <mxCell id="ASu68f97bZoogYDHbavn-8" value="" style="group" vertex="1" connectable="0" parent="1">
          <mxGeometry x="-90" y="375" width="290" height="140" as="geometry" />
        </mxCell>
        <mxCell id="ASu68f97bZoogYDHbavn-5" value="" style="ellipse;whiteSpace=wrap;html=1;" vertex="1" parent="ASu68f97bZoogYDHbavn-8">
          <mxGeometry width="290" height="140" as="geometry" />
        </mxCell>
        <mxCell id="ASu68f97bZoogYDHbavn-6" value="界面方案 配置数据" style="text;html=1;align=left;verticalAlign=middle;whiteSpace=wrap;rounded=0;spacingLeft=10;" vertex="1" parent="ASu68f97bZoogYDHbavn-8">
          <mxGeometry x="70" y="10" width="120" height="30" as="geometry" />
        </mxCell>
        <mxCell id="ASu68f97bZoogYDHbavn-7" value="attrValueMap&amp;nbsp; &amp;nbsp; 表单头信息&lt;div&gt;attrList&amp;nbsp; &amp;nbsp; &amp;nbsp; &amp;nbsp; &amp;nbsp; &amp;nbsp; &amp;nbsp; 属性&lt;/div&gt;&lt;div&gt;objClass&amp;nbsp; &amp;nbsp; &amp;nbsp; &amp;nbsp; &amp;nbsp; &amp;nbsp;分类信息&lt;/div&gt;&lt;div&gt;buttonList&amp;nbsp; &amp;nbsp; &amp;nbsp; &amp;nbsp; &amp;nbsp;按钮插件&lt;/div&gt;&lt;div&gt;&lt;font color=&quot;#ff0000&quot;&gt;tagList&lt;/font&gt;&amp;nbsp; &amp;nbsp; &amp;nbsp; &amp;nbsp; &amp;nbsp; &amp;nbsp; &amp;nbsp; &lt;font color=&quot;#ff3333&quot;&gt;页签插件&lt;/font&gt;&lt;/div&gt;&lt;div&gt;...&lt;/div&gt;" style="text;html=1;align=left;verticalAlign=middle;whiteSpace=wrap;rounded=0;spacingLeft=10;" vertex="1" parent="ASu68f97bZoogYDHbavn-8">
          <mxGeometry x="70" y="40" width="180" height="90" as="geometry" />
        </mxCell>
        <mxCell id="ASu68f97bZoogYDHbavn-12" value="" style="curved=1;endArrow=classic;html=1;rounded=0;exitX=1;exitY=0.5;exitDx=0;exitDy=0;dashed=1;" edge="1" parent="1" source="SjH8sayAKu-z-4pkcVtZ-4" target="ASu68f97bZoogYDHbavn-5">
          <mxGeometry width="50" height="50" relative="1" as="geometry">
            <mxPoint x="-180" y="500" as="sourcePoint" />
            <mxPoint x="-140" y="450" as="targetPoint" />
            <Array as="points">
              <mxPoint x="-170" y="510" />
              <mxPoint x="-140" y="460" />
            </Array>
          </mxGeometry>
        </mxCell>
        <mxCell id="ASu68f97bZoogYDHbavn-21" value="生成表单配置" style="edgeLabel;html=1;align=center;verticalAlign=middle;resizable=0;points=[];" vertex="1" connectable="0" parent="ASu68f97bZoogYDHbavn-12">
          <mxGeometry x="-0.3219" y="8" relative="1" as="geometry">
            <mxPoint x="22" y="-12" as="offset" />
          </mxGeometry>
        </mxCell>
        <mxCell id="ASu68f97bZoogYDHbavn-13" value="" style="curved=1;endArrow=classic;html=1;rounded=0;entryX=0;entryY=0.5;entryDx=0;entryDy=0;dashed=1;" edge="1" parent="1" source="ASu68f97bZoogYDHbavn-5" target="ASu68f97bZoogYDHbavn-4">
          <mxGeometry width="50" height="50" relative="1" as="geometry">
            <mxPoint x="150" y="450" as="sourcePoint" />
            <mxPoint x="200" y="400" as="targetPoint" />
            <Array as="points">
              <mxPoint x="230" y="450" />
              <mxPoint x="300" y="525" />
            </Array>
          </mxGeometry>
        </mxCell>
        <mxCell id="ASu68f97bZoogYDHbavn-14" value="用户端 动态表单" style="text;html=1;align=left;verticalAlign=middle;whiteSpace=wrap;rounded=0;spacingLeft=10;" vertex="1" parent="1">
          <mxGeometry x="355" y="450" width="120" height="30" as="geometry" />
        </mxCell>
        <mxCell id="ASu68f97bZoogYDHbavn-15" value="表单头" style="rounded=0;whiteSpace=wrap;html=1;" vertex="1" parent="1">
          <mxGeometry x="375" y="480" width="80" height="30" as="geometry" />
        </mxCell>
        <mxCell id="ASu68f97bZoogYDHbavn-16" value="页签Tabs" style="rounded=0;whiteSpace=wrap;html=1;" vertex="1" parent="1">
          <mxGeometry x="375" y="515" width="80" height="30" as="geometry" />
        </mxCell>
        <mxCell id="ASu68f97bZoogYDHbavn-17" value="操作按钮" style="rounded=0;whiteSpace=wrap;html=1;" vertex="1" parent="1">
          <mxGeometry x="375" y="550" width="80" height="30" as="geometry" />
        </mxCell>
        <mxCell id="ASu68f97bZoogYDHbavn-18" value="" style="curved=1;endArrow=classic;html=1;rounded=0;exitX=0;exitY=0.5;exitDx=0;exitDy=0;entryX=0.5;entryY=1;entryDx=0;entryDy=0;" edge="1" parent="1" source="uKPBRUymARdzfmi3-JPQ-2" target="SjH8sayAKu-z-4pkcVtZ-2">
          <mxGeometry width="50" height="50" relative="1" as="geometry">
            <mxPoint x="-380" y="390" as="sourcePoint" />
            <mxPoint x="-330" y="340" as="targetPoint" />
            <Array as="points">
              <mxPoint x="-460" y="510" />
              <mxPoint x="-480" y="340" />
            </Array>
          </mxGeometry>
        </mxCell>
        <mxCell id="ASu68f97bZoogYDHbavn-20" value="获取插件列表" style="edgeLabel;html=1;align=center;verticalAlign=middle;resizable=0;points=[];" vertex="1" connectable="0" parent="ASu68f97bZoogYDHbavn-18">
          <mxGeometry x="0.0034" y="-11" relative="1" as="geometry">
            <mxPoint as="offset" />
          </mxGeometry>
        </mxCell>
        <mxCell id="ASu68f97bZoogYDHbavn-19" value="" style="curved=1;endArrow=classic;html=1;rounded=0;exitX=1;exitY=0.5;exitDx=0;exitDy=0;entryX=0.8;entryY=0.8;entryDx=0;entryDy=0;entryPerimeter=0;" edge="1" parent="1" source="ASu68f97bZoogYDHbavn-16" target="ASu68f97bZoogYDHbavn-1">
          <mxGeometry width="50" height="50" relative="1" as="geometry">
            <mxPoint x="685" y="505" as="sourcePoint" />
            <mxPoint x="715" y="235" as="targetPoint" />
            <Array as="points">
              <mxPoint x="565" y="520" />
              <mxPoint x="545" y="350" />
            </Array>
          </mxGeometry>
        </mxCell>
        <mxCell id="ASu68f97bZoogYDHbavn-22" value="根据配置拉取插件资源&lt;div&gt;repositoryCode + libraryCode&lt;/div&gt;" style="edgeLabel;html=1;align=center;verticalAlign=middle;resizable=0;points=[];" vertex="1" connectable="0" parent="ASu68f97bZoogYDHbavn-19">
          <mxGeometry x="0.0763" y="-2" relative="1" as="geometry">
            <mxPoint x="-33" y="-51" as="offset" />
          </mxGeometry>
        </mxCell>
        <mxCell id="gm3UTutSEGeAuhtBM3Si-1" value="" style="group" vertex="1" connectable="0" parent="1">
          <mxGeometry x="540" y="390" width="190" height="140" as="geometry" />
        </mxCell>
        <mxCell id="gm3UTutSEGeAuhtBM3Si-2" value="" style="shape=document;whiteSpace=wrap;html=1;boundedLbl=1;" vertex="1" parent="gm3UTutSEGeAuhtBM3Si-1">
          <mxGeometry width="190" height="140" as="geometry" />
        </mxCell>
        <mxCell id="gm3UTutSEGeAuhtBM3Si-3" value="attrValueMap&amp;nbsp; &amp;nbsp;表单头信息&lt;br&gt;compConfig&amp;nbsp; &amp;nbsp; &amp;nbsp;插件配置信息&lt;br&gt;系统信息（租户、应用的信息）&lt;br&gt;classId&amp;nbsp; &amp;nbsp; &amp;nbsp; &amp;nbsp; &amp;nbsp; &amp;nbsp; &amp;nbsp;分类ID&lt;br&gt;ownerId&amp;nbsp; &amp;nbsp; &amp;nbsp; &amp;nbsp; &amp;nbsp; &amp;nbsp; 页签ID&lt;br&gt;itemId&amp;nbsp; &amp;nbsp; &amp;nbsp; &amp;nbsp; &amp;nbsp; &amp;nbsp; &amp;nbsp; 表单ID" style="text;html=1;align=left;verticalAlign=middle;whiteSpace=wrap;rounded=0;" vertex="1" parent="gm3UTutSEGeAuhtBM3Si-1">
          <mxGeometry x="10" width="180" height="110" as="geometry" />
        </mxCell>
      </root>
    </mxGraphModel>
  </diagram>
  <diagram id="bSS6hp2jvKseLUzicuuu" name="第 6 页">
    <mxGraphModel dx="2893" dy="1160" grid="1" gridSize="10" guides="1" tooltips="1" connect="1" arrows="1" fold="1" page="1" pageScale="1" pageWidth="827" pageHeight="1169" math="0" shadow="0">
      <root>
        <mxCell id="0" />
        <mxCell id="1" parent="0" />
        <mxCell id="ZLHPO6mivJTCt4zNfzzH-2" value="A" style="rounded=0;whiteSpace=wrap;html=1;fontSize=22;" vertex="1" parent="1">
          <mxGeometry x="240" y="440" width="80" height="40" as="geometry" />
        </mxCell>
        <mxCell id="ZLHPO6mivJTCt4zNfzzH-3" value="B" style="rounded=0;whiteSpace=wrap;html=1;fontSize=22;" vertex="1" parent="1">
          <mxGeometry x="340" y="440" width="80" height="40" as="geometry" />
        </mxCell>
        <mxCell id="ZLHPO6mivJTCt4zNfzzH-4" value="C" style="rounded=0;whiteSpace=wrap;html=1;fontSize=22;" vertex="1" parent="1">
          <mxGeometry x="440" y="440" width="80" height="40" as="geometry" />
        </mxCell>
        <mxCell id="ZLHPO6mivJTCt4zNfzzH-5" value="A1" style="rounded=0;whiteSpace=wrap;html=1;fontSize=22;" vertex="1" parent="1">
          <mxGeometry x="240" y="500" width="80" height="40" as="geometry" />
        </mxCell>
        <mxCell id="ZLHPO6mivJTCt4zNfzzH-6" value="" style="rounded=0;whiteSpace=wrap;html=1;fontSize=22;" vertex="1" parent="1">
          <mxGeometry x="340" y="500" width="80" height="40" as="geometry" />
        </mxCell>
        <mxCell id="ZLHPO6mivJTCt4zNfzzH-7" value="" style="rounded=0;whiteSpace=wrap;html=1;fontSize=22;" vertex="1" parent="1">
          <mxGeometry x="440" y="500" width="80" height="40" as="geometry" />
        </mxCell>
        <mxCell id="ZLHPO6mivJTCt4zNfzzH-8" value="A1" style="rounded=0;whiteSpace=wrap;html=1;fontSize=22;" vertex="1" parent="1">
          <mxGeometry x="240" y="600" width="80" height="40" as="geometry" />
        </mxCell>
        <mxCell id="ZLHPO6mivJTCt4zNfzzH-9" value="B1" style="rounded=0;whiteSpace=wrap;html=1;fontSize=22;" vertex="1" parent="1">
          <mxGeometry x="-20" y="440" width="80" height="40" as="geometry" />
        </mxCell>
        <mxCell id="ZLHPO6mivJTCt4zNfzzH-10" value="C1" style="rounded=0;whiteSpace=wrap;html=1;fontSize=22;" vertex="1" parent="1">
          <mxGeometry x="440" y="600" width="80" height="40" as="geometry" />
        </mxCell>
        <mxCell id="ZLHPO6mivJTCt4zNfzzH-11" value="A2" style="rounded=0;whiteSpace=wrap;html=1;fontSize=22;" vertex="1" parent="1">
          <mxGeometry x="240" y="700" width="80" height="40" as="geometry" />
        </mxCell>
        <mxCell id="ZLHPO6mivJTCt4zNfzzH-12" value="B1" style="rounded=0;whiteSpace=wrap;html=1;fontSize=22;" vertex="1" parent="1">
          <mxGeometry x="340" y="700" width="80" height="40" as="geometry" />
        </mxCell>
        <mxCell id="ZLHPO6mivJTCt4zNfzzH-13" value="C2" style="rounded=0;whiteSpace=wrap;html=1;fontSize=22;" vertex="1" parent="1">
          <mxGeometry x="440" y="700" width="80" height="40" as="geometry" />
        </mxCell>
        <mxCell id="ZLHPO6mivJTCt4zNfzzH-15" style="edgeStyle=orthogonalEdgeStyle;rounded=0;orthogonalLoop=1;jettySize=auto;html=1;exitX=1;exitY=0.5;exitDx=0;exitDy=0;fontSize=22;" edge="1" parent="1" source="ZLHPO6mivJTCt4zNfzzH-14" target="ZLHPO6mivJTCt4zNfzzH-9">
          <mxGeometry relative="1" as="geometry" />
        </mxCell>
        <mxCell id="ZLHPO6mivJTCt4zNfzzH-14" value="A1" style="rounded=0;whiteSpace=wrap;html=1;fontSize=22;" vertex="1" parent="1">
          <mxGeometry x="-140" y="440" width="80" height="40" as="geometry" />
        </mxCell>
        <mxCell id="ZLHPO6mivJTCt4zNfzzH-16" value="B1" style="rounded=0;whiteSpace=wrap;html=1;fontSize=22;" vertex="1" parent="1">
          <mxGeometry x="340" y="600" width="80" height="40" as="geometry" />
        </mxCell>
        <mxCell id="ZLHPO6mivJTCt4zNfzzH-17" value="A2" style="rounded=0;whiteSpace=wrap;html=1;fontSize=22;" vertex="1" parent="1">
          <mxGeometry x="-20" y="620" width="80" height="40" as="geometry" />
        </mxCell>
        <mxCell id="ZLHPO6mivJTCt4zNfzzH-18" style="edgeStyle=orthogonalEdgeStyle;rounded=0;orthogonalLoop=1;jettySize=auto;html=1;exitX=1;exitY=0.5;exitDx=0;exitDy=0;fontSize=22;" edge="1" parent="1" source="ZLHPO6mivJTCt4zNfzzH-19" target="ZLHPO6mivJTCt4zNfzzH-17">
          <mxGeometry relative="1" as="geometry" />
        </mxCell>
        <mxCell id="ZLHPO6mivJTCt4zNfzzH-19" value="B1" style="rounded=0;whiteSpace=wrap;html=1;fontSize=22;" vertex="1" parent="1">
          <mxGeometry x="-140" y="620" width="80" height="40" as="geometry" />
        </mxCell>
        <mxCell id="ZLHPO6mivJTCt4zNfzzH-22" style="edgeStyle=orthogonalEdgeStyle;rounded=0;orthogonalLoop=1;jettySize=auto;html=1;entryX=0;entryY=0.5;entryDx=0;entryDy=0;fontSize=22;" edge="1" parent="1" source="ZLHPO6mivJTCt4zNfzzH-20" target="ZLHPO6mivJTCt4zNfzzH-21">
          <mxGeometry relative="1" as="geometry" />
        </mxCell>
        <mxCell id="ZLHPO6mivJTCt4zNfzzH-20" value="C2" style="rounded=0;whiteSpace=wrap;html=1;fontSize=22;" vertex="1" parent="1">
          <mxGeometry x="-140" y="680" width="80" height="40" as="geometry" />
        </mxCell>
        <mxCell id="ZLHPO6mivJTCt4zNfzzH-21" value="A1" style="rounded=0;whiteSpace=wrap;html=1;fontSize=22;" vertex="1" parent="1">
          <mxGeometry x="-20" y="680" width="80" height="40" as="geometry" />
        </mxCell>
        <mxCell id="ZLHPO6mivJTCt4zNfzzH-23" value="C2" style="rounded=0;whiteSpace=wrap;html=1;fontSize=22;" vertex="1" parent="1">
          <mxGeometry x="-20" y="560" width="80" height="40" as="geometry" />
        </mxCell>
        <mxCell id="ZLHPO6mivJTCt4zNfzzH-24" style="edgeStyle=orthogonalEdgeStyle;rounded=0;orthogonalLoop=1;jettySize=auto;html=1;exitX=1;exitY=0.5;exitDx=0;exitDy=0;fontSize=22;" edge="1" parent="1" source="ZLHPO6mivJTCt4zNfzzH-25" target="ZLHPO6mivJTCt4zNfzzH-23">
          <mxGeometry relative="1" as="geometry" />
        </mxCell>
        <mxCell id="ZLHPO6mivJTCt4zNfzzH-25" value="B1" style="rounded=0;whiteSpace=wrap;html=1;fontSize=22;" vertex="1" parent="1">
          <mxGeometry x="-140" y="560" width="80" height="40" as="geometry" />
        </mxCell>
        <mxCell id="ZLHPO6mivJTCt4zNfzzH-26" value="A1" style="rounded=0;whiteSpace=wrap;html=1;fontSize=22;" vertex="1" parent="1">
          <mxGeometry x="240" y="800" width="80" height="40" as="geometry" />
        </mxCell>
        <mxCell id="ZLHPO6mivJTCt4zNfzzH-27" value="B2" style="rounded=0;whiteSpace=wrap;html=1;fontSize=22;" vertex="1" parent="1">
          <mxGeometry x="340" y="800" width="80" height="40" as="geometry" />
        </mxCell>
        <mxCell id="ZLHPO6mivJTCt4zNfzzH-28" value="C2" style="rounded=0;whiteSpace=wrap;html=1;fontSize=22;" vertex="1" parent="1">
          <mxGeometry x="440" y="800" width="80" height="40" as="geometry" />
        </mxCell>
        <mxCell id="ZLHPO6mivJTCt4zNfzzH-29" value="C1" style="rounded=0;whiteSpace=wrap;html=1;fontSize=22;" vertex="1" parent="1">
          <mxGeometry x="-20" y="500" width="80" height="40" as="geometry" />
        </mxCell>
        <mxCell id="ZLHPO6mivJTCt4zNfzzH-30" style="edgeStyle=orthogonalEdgeStyle;rounded=0;orthogonalLoop=1;jettySize=auto;html=1;exitX=1;exitY=0.5;exitDx=0;exitDy=0;fontSize=22;" edge="1" parent="1" source="ZLHPO6mivJTCt4zNfzzH-31" target="ZLHPO6mivJTCt4zNfzzH-29">
          <mxGeometry relative="1" as="geometry" />
        </mxCell>
        <mxCell id="ZLHPO6mivJTCt4zNfzzH-31" value="A1" style="rounded=0;whiteSpace=wrap;html=1;fontSize=22;" vertex="1" parent="1">
          <mxGeometry x="-140" y="500" width="80" height="40" as="geometry" />
        </mxCell>
        <mxCell id="ZLHPO6mivJTCt4zNfzzH-32" style="edgeStyle=orthogonalEdgeStyle;rounded=0;orthogonalLoop=1;jettySize=auto;html=1;entryX=0;entryY=0.5;entryDx=0;entryDy=0;fontSize=22;" edge="1" parent="1" source="ZLHPO6mivJTCt4zNfzzH-33" target="ZLHPO6mivJTCt4zNfzzH-34">
          <mxGeometry relative="1" as="geometry" />
        </mxCell>
        <mxCell id="ZLHPO6mivJTCt4zNfzzH-33" value="C2" style="rounded=0;whiteSpace=wrap;html=1;fontSize=22;" vertex="1" parent="1">
          <mxGeometry x="-140" y="740" width="80" height="40" as="geometry" />
        </mxCell>
        <mxCell id="ZLHPO6mivJTCt4zNfzzH-34" value="B2" style="rounded=0;whiteSpace=wrap;html=1;fontSize=22;" vertex="1" parent="1">
          <mxGeometry x="-20" y="740" width="80" height="40" as="geometry" />
        </mxCell>
        <mxCell id="ZLHPO6mivJTCt4zNfzzH-35" value="A1" style="rounded=0;whiteSpace=wrap;html=1;fontSize=22;" vertex="1" parent="1">
          <mxGeometry x="240" y="900" width="80" height="40" as="geometry" />
        </mxCell>
        <mxCell id="ZLHPO6mivJTCt4zNfzzH-36" value="B1" style="rounded=0;whiteSpace=wrap;html=1;fontSize=22;" vertex="1" parent="1">
          <mxGeometry x="340" y="900" width="80" height="40" as="geometry" />
        </mxCell>
        <mxCell id="ZLHPO6mivJTCt4zNfzzH-37" value="C1" style="rounded=0;whiteSpace=wrap;html=1;fontSize=22;" vertex="1" parent="1">
          <mxGeometry x="440" y="900" width="80" height="40" as="geometry" />
        </mxCell>
        <mxCell id="ZLHPO6mivJTCt4zNfzzH-38" value="" style="curved=1;endArrow=classic;html=1;rounded=0;fontSize=22;strokeWidth=2;" edge="1" parent="1">
          <mxGeometry width="50" height="50" relative="1" as="geometry">
            <mxPoint x="540" y="910" as="sourcePoint" />
            <mxPoint x="540" y="620" as="targetPoint" />
            <Array as="points">
              <mxPoint x="640" y="870" />
              <mxPoint x="640" y="670" />
            </Array>
          </mxGeometry>
        </mxCell>
        <mxCell id="ZLHPO6mivJTCt4zNfzzH-40" value="" style="endArrow=classic;html=1;rounded=0;" edge="1" parent="1" source="ZLHPO6mivJTCt4zNfzzH-5" target="ZLHPO6mivJTCt4zNfzzH-16">
          <mxGeometry width="50" height="50" relative="1" as="geometry">
            <mxPoint x="70" y="410" as="sourcePoint" />
            <mxPoint x="120" y="360" as="targetPoint" />
          </mxGeometry>
        </mxCell>
        <mxCell id="ZLHPO6mivJTCt4zNfzzH-41" value="" style="endArrow=classic;html=1;rounded=0;" edge="1" parent="1" source="ZLHPO6mivJTCt4zNfzzH-5" target="ZLHPO6mivJTCt4zNfzzH-10">
          <mxGeometry width="50" height="50" relative="1" as="geometry">
            <mxPoint x="290" y="550" as="sourcePoint" />
            <mxPoint x="359" y="595" as="targetPoint" />
          </mxGeometry>
        </mxCell>
        <mxCell id="ZLHPO6mivJTCt4zNfzzH-42" value="" style="endArrow=classic;html=1;rounded=0;" edge="1" parent="1" source="ZLHPO6mivJTCt4zNfzzH-16" target="ZLHPO6mivJTCt4zNfzzH-11">
          <mxGeometry width="50" height="50" relative="1" as="geometry">
            <mxPoint x="310" y="550" as="sourcePoint" />
            <mxPoint x="370" y="610" as="targetPoint" />
          </mxGeometry>
        </mxCell>
        <mxCell id="ZLHPO6mivJTCt4zNfzzH-43" value="" style="endArrow=classic;html=1;rounded=0;" edge="1" parent="1" source="ZLHPO6mivJTCt4zNfzzH-16" target="ZLHPO6mivJTCt4zNfzzH-13">
          <mxGeometry width="50" height="50" relative="1" as="geometry">
            <mxPoint x="370" y="650" as="sourcePoint" />
            <mxPoint x="310" y="710" as="targetPoint" />
          </mxGeometry>
        </mxCell>
        <mxCell id="ZLHPO6mivJTCt4zNfzzH-44" value="" style="endArrow=classic;html=1;rounded=0;" edge="1" parent="1" source="ZLHPO6mivJTCt4zNfzzH-13" target="ZLHPO6mivJTCt4zNfzzH-26">
          <mxGeometry width="50" height="50" relative="1" as="geometry">
            <mxPoint x="370" y="650" as="sourcePoint" />
            <mxPoint x="310" y="710" as="targetPoint" />
          </mxGeometry>
        </mxCell>
        <mxCell id="ZLHPO6mivJTCt4zNfzzH-45" value="" style="endArrow=classic;html=1;rounded=0;" edge="1" parent="1" source="ZLHPO6mivJTCt4zNfzzH-13" target="ZLHPO6mivJTCt4zNfzzH-27">
          <mxGeometry width="50" height="50" relative="1" as="geometry">
            <mxPoint x="370" y="650" as="sourcePoint" />
            <mxPoint x="310" y="710" as="targetPoint" />
          </mxGeometry>
        </mxCell>
        <mxCell id="ZLHPO6mivJTCt4zNfzzH-46" value="" style="endArrow=classic;html=1;rounded=0;" edge="1" parent="1" source="ZLHPO6mivJTCt4zNfzzH-26" target="ZLHPO6mivJTCt4zNfzzH-36">
          <mxGeometry width="50" height="50" relative="1" as="geometry">
            <mxPoint x="470" y="750" as="sourcePoint" />
            <mxPoint x="410" y="810" as="targetPoint" />
          </mxGeometry>
        </mxCell>
        <mxCell id="ZLHPO6mivJTCt4zNfzzH-47" value="" style="endArrow=classic;html=1;rounded=0;" edge="1" parent="1" source="ZLHPO6mivJTCt4zNfzzH-26" target="ZLHPO6mivJTCt4zNfzzH-37">
          <mxGeometry width="50" height="50" relative="1" as="geometry">
            <mxPoint x="470" y="750" as="sourcePoint" />
            <mxPoint x="410" y="810" as="targetPoint" />
          </mxGeometry>
        </mxCell>
      </root>
    </mxGraphModel>
  </diagram>
  <diagram id="-RWcE_0tQOKfX_z4G411" name="第 7 页">
    <mxGraphModel dx="2893" dy="1160" grid="1" gridSize="10" guides="1" tooltips="1" connect="1" arrows="1" fold="1" page="1" pageScale="1" pageWidth="827" pageHeight="1169" math="0" shadow="0">
      <root>
        <mxCell id="0" />
        <mxCell id="1" parent="0" />
        <mxCell id="lzBC9D9n9wYlKmntgUj4-4" value="" style="edgeStyle=orthogonalEdgeStyle;rounded=0;orthogonalLoop=1;jettySize=auto;html=1;" edge="1" parent="1" source="lzBC9D9n9wYlKmntgUj4-2" target="lzBC9D9n9wYlKmntgUj4-5">
          <mxGeometry relative="1" as="geometry">
            <mxPoint x="-340" y="970" as="targetPoint" />
          </mxGeometry>
        </mxCell>
        <mxCell id="lzBC9D9n9wYlKmntgUj4-2" value="&lt;div&gt;开始&lt;/div&gt;&lt;div&gt;（获取表单界面方案）&lt;br&gt;&lt;/div&gt;" style="ellipse;whiteSpace=wrap;html=1;" vertex="1" parent="1">
          <mxGeometry x="-360" y="930" width="130" height="80" as="geometry" />
        </mxCell>
        <mxCell id="lzBC9D9n9wYlKmntgUj4-8" value="" style="edgeStyle=orthogonalEdgeStyle;rounded=0;orthogonalLoop=1;jettySize=auto;html=1;" edge="1" parent="1" source="lzBC9D9n9wYlKmntgUj4-5" target="lzBC9D9n9wYlKmntgUj4-7">
          <mxGeometry relative="1" as="geometry" />
        </mxCell>
        <mxCell id="lzBC9D9n9wYlKmntgUj4-5" value="scheme 数据" style="whiteSpace=wrap;html=1;" vertex="1" parent="1">
          <mxGeometry x="-180" y="940" width="120" height="60" as="geometry" />
        </mxCell>
        <mxCell id="lzBC9D9n9wYlKmntgUj4-33" style="edgeStyle=orthogonalEdgeStyle;rounded=0;orthogonalLoop=1;jettySize=auto;html=1;" edge="1" parent="1" source="lzBC9D9n9wYlKmntgUj4-7" target="lzBC9D9n9wYlKmntgUj4-9">
          <mxGeometry relative="1" as="geometry" />
        </mxCell>
        <mxCell id="lzBC9D9n9wYlKmntgUj4-58" style="edgeStyle=orthogonalEdgeStyle;rounded=0;orthogonalLoop=1;jettySize=auto;html=1;exitX=0.5;exitY=0;exitDx=0;exitDy=0;entryX=0;entryY=0.5;entryDx=0;entryDy=0;" edge="1" parent="1" source="lzBC9D9n9wYlKmntgUj4-7" target="lzBC9D9n9wYlKmntgUj4-19">
          <mxGeometry relative="1" as="geometry" />
        </mxCell>
        <mxCell id="lzBC9D9n9wYlKmntgUj4-7" value="解析出 itemList&lt;div&gt;然后setState&lt;/div&gt;" style="whiteSpace=wrap;html=1;" vertex="1" parent="1">
          <mxGeometry x="10" y="940" width="120" height="60" as="geometry" />
        </mxCell>
        <mxCell id="lzBC9D9n9wYlKmntgUj4-12" value="" style="edgeStyle=orthogonalEdgeStyle;rounded=0;orthogonalLoop=1;jettySize=auto;html=1;" edge="1" parent="1" source="lzBC9D9n9wYlKmntgUj4-9" target="lzBC9D9n9wYlKmntgUj4-11">
          <mxGeometry relative="1" as="geometry" />
        </mxCell>
        <mxCell id="lzBC9D9n9wYlKmntgUj4-9" value="触发定制属性逻辑&lt;div&gt;customInit&lt;/div&gt;" style="whiteSpace=wrap;html=1;" vertex="1" parent="1">
          <mxGeometry x="170" y="940" width="120" height="60" as="geometry" />
        </mxCell>
        <mxCell id="lzBC9D9n9wYlKmntgUj4-30" style="edgeStyle=orthogonalEdgeStyle;rounded=0;orthogonalLoop=1;jettySize=auto;html=1;" edge="1" parent="1" source="lzBC9D9n9wYlKmntgUj4-11" target="lzBC9D9n9wYlKmntgUj4-23">
          <mxGeometry relative="1" as="geometry" />
        </mxCell>
        <mxCell id="lzBC9D9n9wYlKmntgUj4-56" style="edgeStyle=orthogonalEdgeStyle;rounded=0;orthogonalLoop=1;jettySize=auto;html=1;exitX=0.5;exitY=0;exitDx=0;exitDy=0;entryX=0;entryY=0.5;entryDx=0;entryDy=0;" edge="1" parent="1" source="lzBC9D9n9wYlKmntgUj4-11" target="lzBC9D9n9wYlKmntgUj4-19">
          <mxGeometry relative="1" as="geometry" />
        </mxCell>
        <mxCell id="lzBC9D9n9wYlKmntgUj4-11" value="「基本单位」属性定制逻辑&lt;div&gt;&lt;br&gt;&lt;/div&gt;&lt;div&gt;请求 + setFieldsValue&lt;/div&gt;" style="whiteSpace=wrap;html=1;fillColor=#f8cecc;strokeColor=#b85450;" vertex="1" parent="1">
          <mxGeometry x="354" y="920" width="120" height="100" as="geometry" />
        </mxCell>
        <mxCell id="lzBC9D9n9wYlKmntgUj4-125" style="edgeStyle=orthogonalEdgeStyle;rounded=0;orthogonalLoop=1;jettySize=auto;html=1;" edge="1" parent="1" source="lzBC9D9n9wYlKmntgUj4-13" target="lzBC9D9n9wYlKmntgUj4-124">
          <mxGeometry relative="1" as="geometry" />
        </mxCell>
        <mxCell id="lzBC9D9n9wYlKmntgUj4-13" value="触发属性联动匹配" style="whiteSpace=wrap;html=1;fillColor=#f8cecc;strokeColor=#b85450;" vertex="1" parent="1">
          <mxGeometry x="545" y="1050" width="120" height="60" as="geometry" />
        </mxCell>
        <mxCell id="lzBC9D9n9wYlKmntgUj4-59" style="edgeStyle=orthogonalEdgeStyle;rounded=0;orthogonalLoop=1;jettySize=auto;html=1;" edge="1" parent="1" source="lzBC9D9n9wYlKmntgUj4-124" target="lzBC9D9n9wYlKmntgUj4-5">
          <mxGeometry relative="1" as="geometry">
            <mxPoint x="30" y="1080" as="sourcePoint" />
          </mxGeometry>
        </mxCell>
        <mxCell id="lzBC9D9n9wYlKmntgUj4-126" value="是" style="edgeLabel;html=1;align=center;verticalAlign=middle;resizable=0;points=[];" vertex="1" connectable="0" parent="lzBC9D9n9wYlKmntgUj4-59">
          <mxGeometry x="-0.3333" y="-2" relative="1" as="geometry">
            <mxPoint as="offset" />
          </mxGeometry>
        </mxCell>
        <mxCell id="lzBC9D9n9wYlKmntgUj4-19" value="渲染表单" style="whiteSpace=wrap;html=1;" vertex="1" parent="1">
          <mxGeometry x="730" y="820" width="120" height="60" as="geometry" />
        </mxCell>
        <mxCell id="lzBC9D9n9wYlKmntgUj4-28" value="" style="edgeStyle=orthogonalEdgeStyle;rounded=0;orthogonalLoop=1;jettySize=auto;html=1;" edge="1" parent="1" source="lzBC9D9n9wYlKmntgUj4-23" target="lzBC9D9n9wYlKmntgUj4-27">
          <mxGeometry relative="1" as="geometry" />
        </mxCell>
        <mxCell id="lzBC9D9n9wYlKmntgUj4-29" value="否" style="edgeLabel;html=1;align=center;verticalAlign=middle;resizable=0;points=[];" vertex="1" connectable="0" parent="lzBC9D9n9wYlKmntgUj4-28">
          <mxGeometry x="-0.0423" y="-1" relative="1" as="geometry">
            <mxPoint as="offset" />
          </mxGeometry>
        </mxCell>
        <mxCell id="lzBC9D9n9wYlKmntgUj4-31" style="edgeStyle=orthogonalEdgeStyle;rounded=0;orthogonalLoop=1;jettySize=auto;html=1;exitX=0.5;exitY=1;exitDx=0;exitDy=0;" edge="1" parent="1" source="lzBC9D9n9wYlKmntgUj4-23" target="lzBC9D9n9wYlKmntgUj4-13">
          <mxGeometry relative="1" as="geometry" />
        </mxCell>
        <mxCell id="lzBC9D9n9wYlKmntgUj4-32" value="是" style="edgeLabel;html=1;align=center;verticalAlign=middle;resizable=0;points=[];" vertex="1" connectable="0" parent="lzBC9D9n9wYlKmntgUj4-31">
          <mxGeometry x="-0.1091" relative="1" as="geometry">
            <mxPoint x="44" y="-40" as="offset" />
          </mxGeometry>
        </mxCell>
        <mxCell id="lzBC9D9n9wYlKmntgUj4-23" value="表单值变更&lt;div&gt;检验是否需触发&lt;div&gt;属性联动&lt;/div&gt;&lt;/div&gt;" style="rhombus;whiteSpace=wrap;html=1;fillColor=#f8cecc;strokeColor=#b85450;" vertex="1" parent="1">
          <mxGeometry x="530" y="930" width="150" height="80" as="geometry" />
        </mxCell>
        <mxCell id="lzBC9D9n9wYlKmntgUj4-27" value="结束" style="ellipse;whiteSpace=wrap;html=1;" vertex="1" parent="1">
          <mxGeometry x="750" y="930" width="120" height="80" as="geometry" />
        </mxCell>
        <mxCell id="lzBC9D9n9wYlKmntgUj4-66" value="" style="curved=1;endArrow=classic;html=1;rounded=0;dashed=1;entryX=0.5;entryY=0;entryDx=0;entryDy=0;" edge="1" parent="1" source="lzBC9D9n9wYlKmntgUj4-23" target="lzBC9D9n9wYlKmntgUj4-52">
          <mxGeometry width="50" height="50" relative="1" as="geometry">
            <mxPoint x="220" y="1330" as="sourcePoint" />
            <mxPoint x="270" y="1280" as="targetPoint" />
            <Array as="points">
              <mxPoint x="780" y="1080" />
              <mxPoint x="880" y="1180" />
            </Array>
          </mxGeometry>
        </mxCell>
        <mxCell id="lzBC9D9n9wYlKmntgUj4-120" value="" style="curved=1;endArrow=classic;html=1;rounded=0;entryX=0.805;entryY=-0.021;entryDx=0;entryDy=0;entryPerimeter=0;dashed=1;" edge="1" parent="1" source="lzBC9D9n9wYlKmntgUj4-13" target="lzBC9D9n9wYlKmntgUj4-118">
          <mxGeometry width="50" height="50" relative="1" as="geometry">
            <mxPoint x="260" y="1370" as="sourcePoint" />
            <mxPoint x="310" y="1320" as="targetPoint" />
            <Array as="points">
              <mxPoint x="410" y="1090" />
              <mxPoint x="250" y="1200" />
            </Array>
          </mxGeometry>
        </mxCell>
        <mxCell id="lzBC9D9n9wYlKmntgUj4-123" value="" style="group" vertex="1" connectable="0" parent="1">
          <mxGeometry x="-700" y="1280" width="1140" height="190" as="geometry" />
        </mxCell>
        <mxCell id="lzBC9D9n9wYlKmntgUj4-118" value="" style="rounded=0;whiteSpace=wrap;html=1;dashed=1;" vertex="1" parent="lzBC9D9n9wYlKmntgUj4-123">
          <mxGeometry width="1140" height="190" as="geometry" />
        </mxCell>
        <mxCell id="lzBC9D9n9wYlKmntgUj4-70" value="" style="edgeStyle=orthogonalEdgeStyle;rounded=0;orthogonalLoop=1;jettySize=auto;html=1;" edge="1" parent="lzBC9D9n9wYlKmntgUj4-123" source="lzBC9D9n9wYlKmntgUj4-68" target="lzBC9D9n9wYlKmntgUj4-69">
          <mxGeometry relative="1" as="geometry" />
        </mxCell>
        <mxCell id="lzBC9D9n9wYlKmntgUj4-68" value="使用新表单值，生成属性列表" style="whiteSpace=wrap;html=1;" vertex="1" parent="lzBC9D9n9wYlKmntgUj4-123">
          <mxGeometry x="20" y="90" width="120" height="60" as="geometry" />
        </mxCell>
        <mxCell id="lzBC9D9n9wYlKmntgUj4-72" value="" style="edgeStyle=orthogonalEdgeStyle;rounded=0;orthogonalLoop=1;jettySize=auto;html=1;" edge="1" parent="lzBC9D9n9wYlKmntgUj4-123" source="lzBC9D9n9wYlKmntgUj4-69" target="lzBC9D9n9wYlKmntgUj4-71">
          <mxGeometry relative="1" as="geometry" />
        </mxCell>
        <mxCell id="lzBC9D9n9wYlKmntgUj4-69" value="根据属性列表和属性联动配置做匹配计算" style="whiteSpace=wrap;html=1;" vertex="1" parent="lzBC9D9n9wYlKmntgUj4-123">
          <mxGeometry x="190" y="90" width="120" height="60" as="geometry" />
        </mxCell>
        <mxCell id="lzBC9D9n9wYlKmntgUj4-75" value="" style="edgeStyle=orthogonalEdgeStyle;rounded=0;orthogonalLoop=1;jettySize=auto;html=1;" edge="1" parent="lzBC9D9n9wYlKmntgUj4-123" source="lzBC9D9n9wYlKmntgUj4-71" target="lzBC9D9n9wYlKmntgUj4-74">
          <mxGeometry relative="1" as="geometry" />
        </mxCell>
        <mxCell id="lzBC9D9n9wYlKmntgUj4-71" value="生成需被联动修改的属性列表" style="whiteSpace=wrap;html=1;" vertex="1" parent="lzBC9D9n9wYlKmntgUj4-123">
          <mxGeometry x="360" y="90" width="120" height="60" as="geometry" />
        </mxCell>
        <mxCell id="lzBC9D9n9wYlKmntgUj4-79" value="" style="edgeStyle=orthogonalEdgeStyle;rounded=0;orthogonalLoop=1;jettySize=auto;html=1;" edge="1" parent="lzBC9D9n9wYlKmntgUj4-123" source="lzBC9D9n9wYlKmntgUj4-74" target="lzBC9D9n9wYlKmntgUj4-78">
          <mxGeometry relative="1" as="geometry" />
        </mxCell>
        <mxCell id="lzBC9D9n9wYlKmntgUj4-74" value="将需要被修改的属性合并进属性列表中" style="whiteSpace=wrap;html=1;" vertex="1" parent="lzBC9D9n9wYlKmntgUj4-123">
          <mxGeometry x="530" y="90" width="120" height="60" as="geometry" />
        </mxCell>
        <mxCell id="lzBC9D9n9wYlKmntgUj4-81" value="" style="edgeStyle=orthogonalEdgeStyle;rounded=0;orthogonalLoop=1;jettySize=auto;html=1;" edge="1" parent="lzBC9D9n9wYlKmntgUj4-123" source="lzBC9D9n9wYlKmntgUj4-78" target="lzBC9D9n9wYlKmntgUj4-80">
          <mxGeometry relative="1" as="geometry" />
        </mxCell>
        <mxCell id="lzBC9D9n9wYlKmntgUj4-82" value="相同&lt;div&gt;没有需要再联动的属性&lt;/div&gt;" style="edgeLabel;html=1;align=center;verticalAlign=middle;resizable=0;points=[];" vertex="1" connectable="0" parent="lzBC9D9n9wYlKmntgUj4-81">
          <mxGeometry x="-0.05" y="-1" relative="1" as="geometry">
            <mxPoint as="offset" />
          </mxGeometry>
        </mxCell>
        <mxCell id="lzBC9D9n9wYlKmntgUj4-122" value="不同，需要继续匹配，&lt;div&gt;看是否有新的联动出现&lt;/div&gt;" style="edgeStyle=orthogonalEdgeStyle;rounded=0;orthogonalLoop=1;jettySize=auto;html=1;exitX=0.5;exitY=0;exitDx=0;exitDy=0;entryX=0.5;entryY=0;entryDx=0;entryDy=0;" edge="1" parent="lzBC9D9n9wYlKmntgUj4-123" source="lzBC9D9n9wYlKmntgUj4-78" target="lzBC9D9n9wYlKmntgUj4-68">
          <mxGeometry x="-0.9268" relative="1" as="geometry">
            <Array as="points">
              <mxPoint x="770" y="20" />
              <mxPoint x="80" y="20" />
            </Array>
            <mxPoint as="offset" />
          </mxGeometry>
        </mxCell>
        <mxCell id="lzBC9D9n9wYlKmntgUj4-78" value="跟合并前的属性列表&lt;div&gt;做特性值对比&lt;/div&gt;" style="rhombus;whiteSpace=wrap;html=1;fillColor=#f8cecc;strokeColor=#b85450;" vertex="1" parent="lzBC9D9n9wYlKmntgUj4-123">
          <mxGeometry x="700" y="80" width="140" height="80" as="geometry" />
        </mxCell>
        <mxCell id="lzBC9D9n9wYlKmntgUj4-80" value="根据属性列表生成新 scheme" style="whiteSpace=wrap;html=1;" vertex="1" parent="lzBC9D9n9wYlKmntgUj4-123">
          <mxGeometry x="997" y="90" width="120" height="60" as="geometry" />
        </mxCell>
        <mxCell id="lzBC9D9n9wYlKmntgUj4-128" style="edgeStyle=orthogonalEdgeStyle;rounded=0;orthogonalLoop=1;jettySize=auto;html=1;" edge="1" parent="1" source="lzBC9D9n9wYlKmntgUj4-124" target="lzBC9D9n9wYlKmntgUj4-27">
          <mxGeometry relative="1" as="geometry">
            <mxPoint x="700" y="1180" as="sourcePoint" />
            <mxPoint x="830" y="1010" as="targetPoint" />
            <Array as="points">
              <mxPoint x="810" y="1180" />
            </Array>
          </mxGeometry>
        </mxCell>
        <mxCell id="lzBC9D9n9wYlKmntgUj4-129" value="否" style="edgeLabel;html=1;align=center;verticalAlign=middle;resizable=0;points=[];" vertex="1" connectable="0" parent="lzBC9D9n9wYlKmntgUj4-128">
          <mxGeometry x="-0.9538" y="-3" relative="1" as="geometry">
            <mxPoint x="24" y="-3" as="offset" />
          </mxGeometry>
        </mxCell>
        <mxCell id="lzBC9D9n9wYlKmntgUj4-124" value="是否产生新 scheme" style="rhombus;whiteSpace=wrap;html=1;" vertex="1" parent="1">
          <mxGeometry x="530" y="1140" width="150" height="80" as="geometry" />
        </mxCell>
        <mxCell id="lzBC9D9n9wYlKmntgUj4-52" value="" style="rounded=0;whiteSpace=wrap;html=1;container=0;dashed=1;" vertex="1" parent="1">
          <mxGeometry x="491" y="1280" width="750" height="190" as="geometry" />
        </mxCell>
        <mxCell id="lzBC9D9n9wYlKmntgUj4-40" value="" style="edgeStyle=orthogonalEdgeStyle;rounded=0;orthogonalLoop=1;jettySize=auto;html=1;" edge="1" parent="1" source="lzBC9D9n9wYlKmntgUj4-34" target="lzBC9D9n9wYlKmntgUj4-39">
          <mxGeometry relative="1" as="geometry" />
        </mxCell>
        <mxCell id="lzBC9D9n9wYlKmntgUj4-34" value="根据表单值 + 属性列表 生成特性值列表" style="whiteSpace=wrap;html=1;container=0;" vertex="1" parent="1">
          <mxGeometry x="721" y="1384" width="120" height="70" as="geometry" />
        </mxCell>
        <mxCell id="lzBC9D9n9wYlKmntgUj4-45" value="" style="edgeStyle=orthogonalEdgeStyle;rounded=0;orthogonalLoop=1;jettySize=auto;html=1;" edge="1" parent="1" source="lzBC9D9n9wYlKmntgUj4-39" target="lzBC9D9n9wYlKmntgUj4-44">
          <mxGeometry relative="1" as="geometry" />
        </mxCell>
        <mxCell id="lzBC9D9n9wYlKmntgUj4-46" value="有变化" style="edgeLabel;html=1;align=center;verticalAlign=middle;resizable=0;points=[];container=0;" vertex="1" connectable="0" parent="lzBC9D9n9wYlKmntgUj4-45">
          <mxGeometry x="-0.2" y="2" relative="1" as="geometry">
            <mxPoint as="offset" />
          </mxGeometry>
        </mxCell>
        <mxCell id="lzBC9D9n9wYlKmntgUj4-63" style="edgeStyle=orthogonalEdgeStyle;rounded=0;orthogonalLoop=1;jettySize=auto;html=1;exitX=0.5;exitY=0;exitDx=0;exitDy=0;entryX=0;entryY=0.5;entryDx=0;entryDy=0;" edge="1" parent="1" source="lzBC9D9n9wYlKmntgUj4-39" target="lzBC9D9n9wYlKmntgUj4-41">
          <mxGeometry relative="1" as="geometry" />
        </mxCell>
        <mxCell id="lzBC9D9n9wYlKmntgUj4-64" value="无变化" style="edgeLabel;html=1;align=center;verticalAlign=middle;resizable=0;points=[];container=0;" vertex="1" connectable="0" parent="lzBC9D9n9wYlKmntgUj4-63">
          <mxGeometry x="-0.6993" relative="1" as="geometry">
            <mxPoint x="1" as="offset" />
          </mxGeometry>
        </mxCell>
        <mxCell id="lzBC9D9n9wYlKmntgUj4-39" value="跟缓存的&lt;div&gt;旧特性值列表&lt;div&gt;作对比&lt;/div&gt;&lt;/div&gt;" style="rhombus;whiteSpace=wrap;html=1;container=0;fillColor=#f8cecc;strokeColor=#b85450;" vertex="1" parent="1">
          <mxGeometry x="894.5" y="1379" width="140" height="80" as="geometry" />
        </mxCell>
        <mxCell id="lzBC9D9n9wYlKmntgUj4-41" value="否" style="ellipse;whiteSpace=wrap;html=1;container=0;" vertex="1" parent="1">
          <mxGeometry x="1121" y="1290" width="80" height="80" as="geometry" />
        </mxCell>
        <mxCell id="lzBC9D9n9wYlKmntgUj4-44" value="需要触发属性联动" style="whiteSpace=wrap;html=1;container=0;" vertex="1" parent="1">
          <mxGeometry x="1101" y="1389" width="120" height="60" as="geometry" />
        </mxCell>
        <mxCell id="lzBC9D9n9wYlKmntgUj4-50" style="edgeStyle=orthogonalEdgeStyle;rounded=0;orthogonalLoop=1;jettySize=auto;html=1;" edge="1" parent="1" source="lzBC9D9n9wYlKmntgUj4-47" target="lzBC9D9n9wYlKmntgUj4-34">
          <mxGeometry relative="1" as="geometry" />
        </mxCell>
        <mxCell id="lzBC9D9n9wYlKmntgUj4-51" value="有变化" style="edgeLabel;html=1;align=center;verticalAlign=middle;resizable=0;points=[];container=0;" vertex="1" connectable="0" parent="lzBC9D9n9wYlKmntgUj4-50">
          <mxGeometry x="-0.1667" y="-2" relative="1" as="geometry">
            <mxPoint as="offset" />
          </mxGeometry>
        </mxCell>
        <mxCell id="lzBC9D9n9wYlKmntgUj4-61" style="edgeStyle=orthogonalEdgeStyle;rounded=0;orthogonalLoop=1;jettySize=auto;html=1;exitX=0.5;exitY=0;exitDx=0;exitDy=0;entryX=0;entryY=0.5;entryDx=0;entryDy=0;" edge="1" parent="1" source="lzBC9D9n9wYlKmntgUj4-47" target="lzBC9D9n9wYlKmntgUj4-41">
          <mxGeometry relative="1" as="geometry">
            <Array as="points">
              <mxPoint x="571" y="1330" />
              <mxPoint x="1121" y="1330" />
            </Array>
          </mxGeometry>
        </mxCell>
        <mxCell id="lzBC9D9n9wYlKmntgUj4-62" value="无变化" style="edgeLabel;html=1;align=center;verticalAlign=middle;resizable=0;points=[];container=0;" vertex="1" connectable="0" parent="lzBC9D9n9wYlKmntgUj4-61">
          <mxGeometry x="-0.8858" relative="1" as="geometry">
            <mxPoint as="offset" />
          </mxGeometry>
        </mxCell>
        <mxCell id="lzBC9D9n9wYlKmntgUj4-47" value="表单值是否变化&lt;div&gt;（跟上次表单值对比）&lt;/div&gt;" style="rhombus;whiteSpace=wrap;html=1;container=0;" vertex="1" parent="1">
          <mxGeometry x="501" y="1379" width="140" height="80" as="geometry" />
        </mxCell>
      </root>
    </mxGraphModel>
  </diagram>
</mxfile>
